<?xml version="1.0" encoding="utf-8"?>
<!-- Generator: Adobe Illustrator 27.5.0, SVG Export Plug-In . SVG Version: 6.00 Build 0)  -->
<svg version="1.1" xmlns="http://www.w3.org/2000/svg" xmlns:xlink="http://www.w3.org/1999/xlink" x="0px" y="0px"
	 viewBox="0 0 500 500" style="enable-background:new 0 0 500 500; background: transparent" xml:space="preserve">
<g id="Background_complete">
	<g>
		<g>
			<g>
				<g>
					<path style="fill:#F0F0F0;" d="M444.708,349.145H263.962c-3.232,0-5.862-2.63-5.862-5.862V80.009
						c0-3.232,2.63-5.862,5.862-5.862h180.746c3.232,0,5.862,2.629,5.862,5.862v263.273
						C450.57,346.515,447.94,349.145,444.708,349.145z M263.962,74.397c-3.095,0-5.612,2.518-5.612,5.612v263.273
						c0,3.095,2.518,5.612,5.612,5.612h180.746c3.095,0,5.612-2.518,5.612-5.612V80.009c0-3.094-2.518-5.612-5.612-5.612H263.962z"
						/>
				</g>
			</g>
			<g>
				<g>
					<path style="fill:#F0F0F0;" d="M236.28,349.145H55.534c-3.232,0-5.862-2.63-5.862-5.862V80.009
						c0-3.232,2.629-5.862,5.862-5.862H236.28c3.232,0,5.862,2.629,5.862,5.862v263.273
						C242.143,346.515,239.513,349.145,236.28,349.145z M55.534,74.397c-3.094,0-5.612,2.518-5.612,5.612v263.273
						c0,3.095,2.518,5.612,5.612,5.612H236.28c3.095,0,5.612-2.518,5.612-5.612V80.009c0-3.094-2.518-5.612-5.612-5.612H55.534z"/>
				</g>
			</g>
		</g>
		<g>
			<g>
				<rect x="0" y="410.214" style="fill:#F0F0F0;" width="500" height="0.25"/>
			</g>
		</g>
	</g>
	<g>
		<g>
			
				<rect x="30.868" y="126.633" transform="matrix(-1.836970e-16 1 -1 -1.836970e-16 303.3585 67.675)" style="fill:#F5F5F5;" width="173.947" height="117.768"/>
			<rect x="63.951" y="103.537" style="fill:#FAFAFA;" width="107.781" height="163.96"/>
			<g>
				<g>
					<polygon style="fill:#F5F5F5;" points="106.527,267.478 106.527,178.914 102.84,178.914 96.515,167.959 90.862,158.167 
						90.862,140.089 89.518,140.089 89.518,158.167 83.865,167.959 77.54,178.914 73.854,178.914 73.854,267.478 					"/>
				</g>
				<g>
					<rect x="63.951" y="156.393" style="fill:#F5F5F5;" width="14.59" height="111.085"/>
				</g>
				<g>
					<polygon style="fill:#F5F5F5;" points="147.768,235.629 147.768,155.059 115.77,168.207 115.77,235.629 					"/>
				</g>
				<g>
					<g>
						<g>
							<rect x="139.059" y="178.914" style="fill:#F0F0F0;" width="32.673" height="88.564"/>
						</g>
					</g>
					<g>
						<g>
							<g>
								<rect x="142.746" y="184.33" style="fill:#F5F5F5;" width="5.069" height="2.379"/>
							</g>
							<g>
								<rect x="152.861" y="184.33" style="fill:#F5F5F5;" width="5.07" height="2.379"/>
							</g>
							<g>
								<rect x="162.976" y="184.33" style="fill:#F5F5F5;" width="5.07" height="2.379"/>
							</g>
						</g>
						<g>
							<g>
								<rect x="142.746" y="190.214" style="fill:#F5F5F5;" width="5.069" height="2.378"/>
							</g>
							<g>
								<rect x="152.861" y="190.214" style="fill:#F5F5F5;" width="5.07" height="2.378"/>
							</g>
							<g>
								<rect x="162.976" y="190.214" style="fill:#F5F5F5;" width="5.07" height="2.378"/>
							</g>
						</g>
						<g>
							<g>
								<rect x="142.746" y="196.099" style="fill:#F5F5F5;" width="5.069" height="2.379"/>
							</g>
							<g>
								<rect x="152.861" y="196.099" style="fill:#F5F5F5;" width="5.07" height="2.379"/>
							</g>
							<g>
								<rect x="162.976" y="196.099" style="fill:#F5F5F5;" width="5.07" height="2.379"/>
							</g>
						</g>
						<g>
							<g>
								<rect x="142.746" y="201.983" style="fill:#F5F5F5;" width="5.069" height="2.379"/>
							</g>
							<g>
								<rect x="152.861" y="201.983" style="fill:#F5F5F5;" width="5.07" height="2.379"/>
							</g>
							<g>
								<rect x="162.976" y="201.983" style="fill:#F5F5F5;" width="5.07" height="2.379"/>
							</g>
						</g>
						<g>
							<g>
								<rect x="142.746" y="207.868" style="fill:#F5F5F5;" width="5.069" height="2.379"/>
							</g>
							<g>
								<rect x="152.861" y="207.868" style="fill:#F5F5F5;" width="5.07" height="2.379"/>
							</g>
							<g>
								<rect x="162.976" y="207.868" style="fill:#F5F5F5;" width="5.07" height="2.379"/>
							</g>
						</g>
						<g>
							<g>
								<rect x="142.746" y="213.752" style="fill:#F5F5F5;" width="5.069" height="2.378"/>
							</g>
							<g>
								<rect x="152.861" y="213.752" style="fill:#F5F5F5;" width="5.07" height="2.378"/>
							</g>
							<g>
								<rect x="162.976" y="213.752" style="fill:#F5F5F5;" width="5.07" height="2.378"/>
							</g>
						</g>
						<g>
							<g>
								<rect x="142.746" y="219.637" style="fill:#F5F5F5;" width="5.069" height="2.379"/>
							</g>
							<g>
								<rect x="152.861" y="219.637" style="fill:#F5F5F5;" width="5.07" height="2.379"/>
							</g>
							<g>
								<rect x="162.976" y="219.637" style="fill:#F5F5F5;" width="5.07" height="2.379"/>
							</g>
						</g>
						<g>
							<g>
								<rect x="142.746" y="225.521" style="fill:#F5F5F5;" width="5.069" height="2.378"/>
							</g>
							<g>
								<rect x="152.861" y="225.521" style="fill:#F5F5F5;" width="5.07" height="2.378"/>
							</g>
							<g>
								<rect x="162.976" y="225.521" style="fill:#F5F5F5;" width="5.07" height="2.378"/>
							</g>
						</g>
						<g>
							<g>
								<rect x="142.746" y="231.406" style="fill:#F5F5F5;" width="5.069" height="2.379"/>
							</g>
							<g>
								<rect x="152.861" y="231.406" style="fill:#F5F5F5;" width="5.07" height="2.379"/>
							</g>
							<g>
								<rect x="162.976" y="231.406" style="fill:#F5F5F5;" width="5.07" height="2.379"/>
							</g>
						</g>
						<g>
							<g>
								<rect x="142.746" y="237.29" style="fill:#F5F5F5;" width="5.069" height="2.379"/>
							</g>
							<g>
								<rect x="152.861" y="237.29" style="fill:#F5F5F5;" width="5.07" height="2.379"/>
							</g>
							<g>
								<rect x="162.976" y="237.29" style="fill:#F5F5F5;" width="5.07" height="2.379"/>
							</g>
						</g>
						<g>
							<g>
								<rect x="142.746" y="243.174" style="fill:#F5F5F5;" width="5.069" height="2.378"/>
							</g>
							<g>
								<rect x="152.861" y="243.174" style="fill:#F5F5F5;" width="5.07" height="2.378"/>
							</g>
							<g>
								<rect x="162.976" y="243.174" style="fill:#F5F5F5;" width="5.07" height="2.378"/>
							</g>
						</g>
						<g>
							<g>
								<rect x="142.746" y="249.059" style="fill:#F5F5F5;" width="5.069" height="2.378"/>
							</g>
							<g>
								<rect x="152.861" y="249.059" style="fill:#F5F5F5;" width="5.07" height="2.378"/>
							</g>
							<g>
								<rect x="162.976" y="249.059" style="fill:#F5F5F5;" width="5.07" height="2.378"/>
							</g>
						</g>
					</g>
				</g>
				<g>
					<g>
						<g>
							<rect x="63.951" y="178.914" style="fill:#F0F0F0;" width="32.673" height="88.564"/>
						</g>
					</g>
					<g>
						<g>
							<g>
								<rect x="67.638" y="184.33" style="fill:#F5F5F5;" width="5.07" height="2.379"/>
							</g>
							<g>
								<rect x="77.753" y="184.33" style="fill:#F5F5F5;" width="5.07" height="2.379"/>
							</g>
							<g>
								<rect x="87.868" y="184.33" style="fill:#F5F5F5;" width="5.069" height="2.379"/>
							</g>
						</g>
						<g>
							<g>
								<rect x="67.638" y="190.214" style="fill:#F5F5F5;" width="5.07" height="2.378"/>
							</g>
							<g>
								<rect x="77.753" y="190.214" style="fill:#F5F5F5;" width="5.07" height="2.378"/>
							</g>
							<g>
								<rect x="87.868" y="190.214" style="fill:#F5F5F5;" width="5.069" height="2.378"/>
							</g>
						</g>
						<g>
							<g>
								<rect x="67.638" y="196.099" style="fill:#F5F5F5;" width="5.07" height="2.379"/>
							</g>
							<g>
								<rect x="77.753" y="196.099" style="fill:#F5F5F5;" width="5.07" height="2.379"/>
							</g>
							<g>
								<rect x="87.868" y="196.099" style="fill:#F5F5F5;" width="5.069" height="2.379"/>
							</g>
						</g>
						<g>
							<g>
								<rect x="67.638" y="201.983" style="fill:#F5F5F5;" width="5.07" height="2.379"/>
							</g>
							<g>
								<rect x="77.753" y="201.983" style="fill:#F5F5F5;" width="5.07" height="2.379"/>
							</g>
							<g>
								<rect x="87.868" y="201.983" style="fill:#F5F5F5;" width="5.069" height="2.379"/>
							</g>
						</g>
						<g>
							<g>
								<rect x="67.638" y="207.868" style="fill:#F5F5F5;" width="5.07" height="2.379"/>
							</g>
							<g>
								<rect x="77.753" y="207.868" style="fill:#F5F5F5;" width="5.07" height="2.379"/>
							</g>
							<g>
								<rect x="87.868" y="207.868" style="fill:#F5F5F5;" width="5.069" height="2.379"/>
							</g>
						</g>
						<g>
							<g>
								<rect x="67.638" y="213.752" style="fill:#F5F5F5;" width="5.07" height="2.378"/>
							</g>
							<g>
								<rect x="77.753" y="213.752" style="fill:#F5F5F5;" width="5.07" height="2.378"/>
							</g>
							<g>
								<rect x="87.868" y="213.752" style="fill:#F5F5F5;" width="5.069" height="2.378"/>
							</g>
						</g>
						<g>
							<g>
								<rect x="67.638" y="219.637" style="fill:#F5F5F5;" width="5.07" height="2.379"/>
							</g>
							<g>
								<rect x="77.753" y="219.637" style="fill:#F5F5F5;" width="5.07" height="2.379"/>
							</g>
							<g>
								<rect x="87.868" y="219.637" style="fill:#F5F5F5;" width="5.069" height="2.379"/>
							</g>
						</g>
						<g>
							<g>
								<rect x="67.638" y="225.521" style="fill:#F5F5F5;" width="5.07" height="2.378"/>
							</g>
							<g>
								<rect x="77.753" y="225.521" style="fill:#F5F5F5;" width="5.07" height="2.378"/>
							</g>
							<g>
								<rect x="87.868" y="225.521" style="fill:#F5F5F5;" width="5.069" height="2.378"/>
							</g>
						</g>
						<g>
							<g>
								<rect x="67.638" y="231.406" style="fill:#F5F5F5;" width="5.07" height="2.379"/>
							</g>
							<g>
								<rect x="77.753" y="231.406" style="fill:#F5F5F5;" width="5.07" height="2.379"/>
							</g>
							<g>
								<rect x="87.868" y="231.406" style="fill:#F5F5F5;" width="5.069" height="2.379"/>
							</g>
						</g>
						<g>
							<g>
								<rect x="67.638" y="237.29" style="fill:#F5F5F5;" width="5.07" height="2.379"/>
							</g>
							<g>
								<rect x="77.753" y="237.29" style="fill:#F5F5F5;" width="5.07" height="2.379"/>
							</g>
							<g>
								<rect x="87.868" y="237.29" style="fill:#F5F5F5;" width="5.069" height="2.379"/>
							</g>
						</g>
						<g>
							<g>
								<rect x="67.638" y="243.174" style="fill:#F5F5F5;" width="5.07" height="2.378"/>
							</g>
							<g>
								<rect x="77.753" y="243.174" style="fill:#F5F5F5;" width="5.07" height="2.378"/>
							</g>
							<g>
								<rect x="87.868" y="243.174" style="fill:#F5F5F5;" width="5.069" height="2.378"/>
							</g>
						</g>
						<g>
							<g>
								<rect x="67.638" y="249.059" style="fill:#F5F5F5;" width="5.07" height="2.378"/>
							</g>
							<g>
								<rect x="77.753" y="249.059" style="fill:#F5F5F5;" width="5.07" height="2.378"/>
							</g>
							<g>
								<rect x="87.868" y="249.059" style="fill:#F5F5F5;" width="5.069" height="2.378"/>
							</g>
						</g>
					</g>
				</g>
				<g>
					<polygon style="fill:#F0F0F0;" points="155.395,178.914 142.746,178.914 149.071,167.959 155.395,157.004 161.72,167.959 
						168.045,178.914 					"/>
				</g>
				<g>
					<rect x="154.724" y="140.089" style="fill:#F0F0F0;" width="1.344" height="24.975"/>
				</g>
				<g>
					<g>
						<rect x="101.327" y="184.33" style="fill:#F0F0F0;" width="35.024" height="83.148"/>
					</g>
					<g>
						<rect x="103.902" y="181.486" style="fill:#F0F0F0;" width="13.215" height="11.277"/>
					</g>
					<g>
						<rect x="105.091" y="180.654" style="fill:#F0F0F0;" width="3.543" height="10.125"/>
					</g>
					<g>
						<rect x="112.465" y="180.654" style="fill:#F0F0F0;" width="3.543" height="10.125"/>
					</g>
					<g>
						<rect x="126.245" y="181.525" style="fill:#F0F0F0;" width="7.867" height="7.867"/>
					</g>
					<g>
						<g>
							<g>
								<rect x="106.469" y="191.404" style="fill:#F5F5F5;" width="5.07" height="2.378"/>
							</g>
							<g>
								<rect x="116.584" y="191.404" style="fill:#F5F5F5;" width="5.07" height="2.378"/>
							</g>
							<g>
								<rect x="126.699" y="191.404" style="fill:#F5F5F5;" width="5.07" height="2.378"/>
							</g>
						</g>
						<g>
							<g>
								<rect x="106.469" y="197.288" style="fill:#F5F5F5;" width="5.07" height="2.379"/>
							</g>
							<g>
								<rect x="116.584" y="197.288" style="fill:#F5F5F5;" width="5.07" height="2.379"/>
							</g>
							<g>
								<rect x="126.699" y="197.288" style="fill:#F5F5F5;" width="5.07" height="2.379"/>
							</g>
						</g>
						<g>
							<g>
								<rect x="106.469" y="203.173" style="fill:#F5F5F5;" width="5.07" height="2.379"/>
							</g>
							<g>
								<rect x="116.584" y="203.173" style="fill:#F5F5F5;" width="5.07" height="2.379"/>
							</g>
							<g>
								<rect x="126.699" y="203.173" style="fill:#F5F5F5;" width="5.07" height="2.379"/>
							</g>
						</g>
						<g>
							<g>
								<rect x="106.469" y="209.057" style="fill:#F5F5F5;" width="5.07" height="2.378"/>
							</g>
							<g>
								<rect x="116.584" y="209.057" style="fill:#F5F5F5;" width="5.07" height="2.378"/>
							</g>
							<g>
								<rect x="126.699" y="209.057" style="fill:#F5F5F5;" width="5.07" height="2.378"/>
							</g>
						</g>
						<g>
							<g>
								<rect x="106.469" y="214.941" style="fill:#F5F5F5;" width="5.07" height="2.379"/>
							</g>
							<g>
								<rect x="116.584" y="214.941" style="fill:#F5F5F5;" width="5.07" height="2.379"/>
							</g>
							<g>
								<rect x="126.699" y="214.941" style="fill:#F5F5F5;" width="5.07" height="2.379"/>
							</g>
						</g>
						<g>
							<g>
								<rect x="106.469" y="220.826" style="fill:#F5F5F5;" width="5.07" height="2.378"/>
							</g>
							<g>
								<rect x="116.584" y="220.826" style="fill:#F5F5F5;" width="5.07" height="2.378"/>
							</g>
							<g>
								<rect x="126.699" y="220.826" style="fill:#F5F5F5;" width="5.07" height="2.378"/>
							</g>
						</g>
						<g>
							<g>
								<rect x="106.469" y="226.71" style="fill:#F5F5F5;" width="5.07" height="2.378"/>
							</g>
							<g>
								<rect x="116.584" y="226.71" style="fill:#F5F5F5;" width="5.07" height="2.378"/>
							</g>
							<g>
								<rect x="126.699" y="226.71" style="fill:#F5F5F5;" width="5.07" height="2.378"/>
							</g>
						</g>
						<g>
							<g>
								<rect x="106.469" y="232.595" style="fill:#F5F5F5;" width="5.07" height="2.379"/>
							</g>
							<g>
								<rect x="116.584" y="232.595" style="fill:#F5F5F5;" width="5.07" height="2.379"/>
							</g>
							<g>
								<rect x="126.699" y="232.595" style="fill:#F5F5F5;" width="5.07" height="2.379"/>
							</g>
						</g>
						<g>
							<g>
								<rect x="106.469" y="238.479" style="fill:#F5F5F5;" width="5.07" height="2.379"/>
							</g>
							<g>
								<rect x="116.584" y="238.479" style="fill:#F5F5F5;" width="5.07" height="2.379"/>
							</g>
							<g>
								<rect x="126.699" y="238.479" style="fill:#F5F5F5;" width="5.07" height="2.379"/>
							</g>
						</g>
						<g>
							<g>
								<rect x="106.469" y="244.364" style="fill:#F5F5F5;" width="5.07" height="2.379"/>
							</g>
							<g>
								<rect x="116.584" y="244.364" style="fill:#F5F5F5;" width="5.07" height="2.379"/>
							</g>
							<g>
								<rect x="126.699" y="244.364" style="fill:#F5F5F5;" width="5.07" height="2.379"/>
							</g>
						</g>
						<g>
							<g>
								<rect x="106.469" y="250.248" style="fill:#F5F5F5;" width="5.07" height="2.378"/>
							</g>
							<g>
								<rect x="116.584" y="250.248" style="fill:#F5F5F5;" width="5.07" height="2.378"/>
							</g>
							<g>
								<rect x="126.699" y="250.248" style="fill:#F5F5F5;" width="5.07" height="2.378"/>
							</g>
						</g>
						<g>
							<g>
								<rect x="106.469" y="256.133" style="fill:#F5F5F5;" width="5.07" height="2.379"/>
							</g>
							<g>
								<rect x="116.584" y="256.133" style="fill:#F5F5F5;" width="5.07" height="2.379"/>
							</g>
							<g>
								<rect x="126.699" y="256.133" style="fill:#F5F5F5;" width="5.07" height="2.379"/>
							</g>
						</g>
					</g>
				</g>
			</g>
		</g>
		<polygon style="opacity:0.2;fill:#FFFFFF;" points="164.566,103.537 63.951,204.16 63.951,175.263 135.678,103.537 		"/>
		<polygon style="opacity:0.2;fill:#FFFFFF;" points="171.732,139.966 171.732,160.59 64.825,267.497 63.951,267.497 
			63.951,247.755 		"/>
	</g>
	<g>
		<g>
			
				<rect x="294.441" y="127.867" transform="matrix(-1.836970e-16 1 -1 -1.836970e-16 568.1658 -194.6635)" style="fill:#F5F5F5;" width="173.947" height="117.768"/>
			<rect x="327.524" y="104.771" style="fill:#FAFAFA;" width="107.781" height="163.96"/>
			<g>
				<g>
					<polygon style="fill:#F5F5F5;" points="370.1,268.712 370.1,180.148 366.413,180.148 360.088,169.193 354.435,159.402 
						354.435,141.323 353.091,141.323 353.091,159.402 347.438,169.193 341.113,180.148 337.426,180.148 337.426,268.712 					"/>
				</g>
				<g>
					<rect x="327.524" y="157.628" style="fill:#F5F5F5;" width="14.59" height="111.085"/>
				</g>
				<g>
					<polygon style="fill:#F5F5F5;" points="411.341,236.864 411.341,156.294 379.342,169.441 379.342,236.864 					"/>
				</g>
				<g>
					<g>
						<g>
							<rect x="402.632" y="180.148" style="fill:#F0F0F0;" width="32.673" height="88.564"/>
						</g>
					</g>
					<g>
						<g>
							<g>
								<rect x="406.319" y="185.564" style="fill:#F5F5F5;" width="5.069" height="2.379"/>
							</g>
							<g>
								<rect x="416.434" y="185.564" style="fill:#F5F5F5;" width="5.07" height="2.379"/>
							</g>
							<g>
								<rect x="426.549" y="185.564" style="fill:#F5F5F5;" width="5.07" height="2.379"/>
							</g>
						</g>
						<g>
							<g>
								<rect x="406.319" y="191.449" style="fill:#F5F5F5;" width="5.069" height="2.379"/>
							</g>
							<g>
								<rect x="416.434" y="191.449" style="fill:#F5F5F5;" width="5.07" height="2.379"/>
							</g>
							<g>
								<rect x="426.549" y="191.449" style="fill:#F5F5F5;" width="5.07" height="2.379"/>
							</g>
						</g>
						<g>
							<g>
								<rect x="406.319" y="197.333" style="fill:#F5F5F5;" width="5.069" height="2.378"/>
							</g>
							<g>
								<rect x="416.434" y="197.333" style="fill:#F5F5F5;" width="5.07" height="2.378"/>
							</g>
							<g>
								<rect x="426.549" y="197.333" style="fill:#F5F5F5;" width="5.07" height="2.378"/>
							</g>
						</g>
						<g>
							<g>
								<rect x="406.319" y="203.218" style="fill:#F5F5F5;" width="5.069" height="2.379"/>
							</g>
							<g>
								<rect x="416.434" y="203.218" style="fill:#F5F5F5;" width="5.07" height="2.379"/>
							</g>
							<g>
								<rect x="426.549" y="203.218" style="fill:#F5F5F5;" width="5.07" height="2.379"/>
							</g>
						</g>
						<g>
							<g>
								<rect x="406.319" y="209.102" style="fill:#F5F5F5;" width="5.069" height="2.379"/>
							</g>
							<g>
								<rect x="416.434" y="209.102" style="fill:#F5F5F5;" width="5.07" height="2.379"/>
							</g>
							<g>
								<rect x="426.549" y="209.102" style="fill:#F5F5F5;" width="5.07" height="2.379"/>
							</g>
						</g>
						<g>
							<g>
								<rect x="406.319" y="214.986" style="fill:#F5F5F5;" width="5.069" height="2.379"/>
							</g>
							<g>
								<rect x="416.434" y="214.986" style="fill:#F5F5F5;" width="5.07" height="2.379"/>
							</g>
							<g>
								<rect x="426.549" y="214.986" style="fill:#F5F5F5;" width="5.07" height="2.379"/>
							</g>
						</g>
						<g>
							<g>
								<rect x="406.319" y="220.871" style="fill:#F5F5F5;" width="5.069" height="2.379"/>
							</g>
							<g>
								<rect x="416.434" y="220.871" style="fill:#F5F5F5;" width="5.07" height="2.379"/>
							</g>
							<g>
								<rect x="426.549" y="220.871" style="fill:#F5F5F5;" width="5.07" height="2.379"/>
							</g>
						</g>
						<g>
							<g>
								<rect x="406.319" y="226.755" style="fill:#F5F5F5;" width="5.069" height="2.378"/>
							</g>
							<g>
								<rect x="416.434" y="226.755" style="fill:#F5F5F5;" width="5.07" height="2.378"/>
							</g>
							<g>
								<rect x="426.549" y="226.755" style="fill:#F5F5F5;" width="5.07" height="2.378"/>
							</g>
						</g>
						<g>
							<g>
								<rect x="406.319" y="232.64" style="fill:#F5F5F5;" width="5.069" height="2.378"/>
							</g>
							<g>
								<rect x="416.434" y="232.64" style="fill:#F5F5F5;" width="5.07" height="2.378"/>
							</g>
							<g>
								<rect x="426.549" y="232.64" style="fill:#F5F5F5;" width="5.07" height="2.378"/>
							</g>
						</g>
						<g>
							<g>
								<rect x="406.319" y="238.524" style="fill:#F5F5F5;" width="5.069" height="2.379"/>
							</g>
							<g>
								<rect x="416.434" y="238.524" style="fill:#F5F5F5;" width="5.07" height="2.379"/>
							</g>
							<g>
								<rect x="426.549" y="238.524" style="fill:#F5F5F5;" width="5.07" height="2.379"/>
							</g>
						</g>
						<g>
							<g>
								<rect x="406.319" y="244.409" style="fill:#F5F5F5;" width="5.069" height="2.379"/>
							</g>
							<g>
								<rect x="416.434" y="244.409" style="fill:#F5F5F5;" width="5.07" height="2.379"/>
							</g>
							<g>
								<rect x="426.549" y="244.409" style="fill:#F5F5F5;" width="5.07" height="2.379"/>
							</g>
						</g>
						<g>
							<g>
								<rect x="406.319" y="250.293" style="fill:#F5F5F5;" width="5.069" height="2.379"/>
							</g>
							<g>
								<rect x="416.434" y="250.293" style="fill:#F5F5F5;" width="5.07" height="2.379"/>
							</g>
							<g>
								<rect x="426.549" y="250.293" style="fill:#F5F5F5;" width="5.07" height="2.379"/>
							</g>
						</g>
					</g>
				</g>
				<g>
					<g>
						<g>
							<rect x="327.524" y="180.148" style="fill:#F0F0F0;" width="32.673" height="88.564"/>
						</g>
					</g>
					<g>
						<g>
							<g>
								<rect x="331.211" y="185.564" style="fill:#F5F5F5;" width="5.07" height="2.379"/>
							</g>
							<g>
								<rect x="341.326" y="185.564" style="fill:#F5F5F5;" width="5.07" height="2.379"/>
							</g>
							<g>
								<rect x="351.441" y="185.564" style="fill:#F5F5F5;" width="5.07" height="2.379"/>
							</g>
						</g>
						<g>
							<g>
								<rect x="331.211" y="191.449" style="fill:#F5F5F5;" width="5.07" height="2.379"/>
							</g>
							<g>
								<rect x="341.326" y="191.449" style="fill:#F5F5F5;" width="5.07" height="2.379"/>
							</g>
							<g>
								<rect x="351.441" y="191.449" style="fill:#F5F5F5;" width="5.07" height="2.379"/>
							</g>
						</g>
						<g>
							<g>
								<rect x="331.211" y="197.333" style="fill:#F5F5F5;" width="5.07" height="2.378"/>
							</g>
							<g>
								<rect x="341.326" y="197.333" style="fill:#F5F5F5;" width="5.07" height="2.378"/>
							</g>
							<g>
								<rect x="351.441" y="197.333" style="fill:#F5F5F5;" width="5.07" height="2.378"/>
							</g>
						</g>
						<g>
							<g>
								<rect x="331.211" y="203.218" style="fill:#F5F5F5;" width="5.07" height="2.379"/>
							</g>
							<g>
								<rect x="341.326" y="203.218" style="fill:#F5F5F5;" width="5.07" height="2.379"/>
							</g>
							<g>
								<rect x="351.441" y="203.218" style="fill:#F5F5F5;" width="5.07" height="2.379"/>
							</g>
						</g>
						<g>
							<g>
								<rect x="331.211" y="209.102" style="fill:#F5F5F5;" width="5.07" height="2.379"/>
							</g>
							<g>
								<rect x="341.326" y="209.102" style="fill:#F5F5F5;" width="5.07" height="2.379"/>
							</g>
							<g>
								<rect x="351.441" y="209.102" style="fill:#F5F5F5;" width="5.07" height="2.379"/>
							</g>
						</g>
						<g>
							<g>
								<rect x="331.211" y="214.986" style="fill:#F5F5F5;" width="5.07" height="2.379"/>
							</g>
							<g>
								<rect x="341.326" y="214.986" style="fill:#F5F5F5;" width="5.07" height="2.379"/>
							</g>
							<g>
								<rect x="351.441" y="214.986" style="fill:#F5F5F5;" width="5.07" height="2.379"/>
							</g>
						</g>
						<g>
							<g>
								<rect x="331.211" y="220.871" style="fill:#F5F5F5;" width="5.07" height="2.379"/>
							</g>
							<g>
								<rect x="341.326" y="220.871" style="fill:#F5F5F5;" width="5.07" height="2.379"/>
							</g>
							<g>
								<rect x="351.441" y="220.871" style="fill:#F5F5F5;" width="5.07" height="2.379"/>
							</g>
						</g>
						<g>
							<g>
								<rect x="331.211" y="226.755" style="fill:#F5F5F5;" width="5.07" height="2.378"/>
							</g>
							<g>
								<rect x="341.326" y="226.755" style="fill:#F5F5F5;" width="5.07" height="2.378"/>
							</g>
							<g>
								<rect x="351.441" y="226.755" style="fill:#F5F5F5;" width="5.07" height="2.378"/>
							</g>
						</g>
						<g>
							<g>
								<rect x="331.211" y="232.64" style="fill:#F5F5F5;" width="5.07" height="2.378"/>
							</g>
							<g>
								<rect x="341.326" y="232.64" style="fill:#F5F5F5;" width="5.07" height="2.378"/>
							</g>
							<g>
								<rect x="351.441" y="232.64" style="fill:#F5F5F5;" width="5.07" height="2.378"/>
							</g>
						</g>
						<g>
							<g>
								<rect x="331.211" y="238.524" style="fill:#F5F5F5;" width="5.07" height="2.379"/>
							</g>
							<g>
								<rect x="341.326" y="238.524" style="fill:#F5F5F5;" width="5.07" height="2.379"/>
							</g>
							<g>
								<rect x="351.441" y="238.524" style="fill:#F5F5F5;" width="5.07" height="2.379"/>
							</g>
						</g>
						<g>
							<g>
								<rect x="331.211" y="244.409" style="fill:#F5F5F5;" width="5.07" height="2.379"/>
							</g>
							<g>
								<rect x="341.326" y="244.409" style="fill:#F5F5F5;" width="5.07" height="2.379"/>
							</g>
							<g>
								<rect x="351.441" y="244.409" style="fill:#F5F5F5;" width="5.07" height="2.379"/>
							</g>
						</g>
						<g>
							<g>
								<rect x="331.211" y="250.293" style="fill:#F5F5F5;" width="5.07" height="2.379"/>
							</g>
							<g>
								<rect x="341.326" y="250.293" style="fill:#F5F5F5;" width="5.07" height="2.379"/>
							</g>
							<g>
								<rect x="351.441" y="250.293" style="fill:#F5F5F5;" width="5.07" height="2.379"/>
							</g>
						</g>
					</g>
				</g>
				<g>
					<polygon style="fill:#F0F0F0;" points="418.968,180.148 406.319,180.148 412.643,169.193 418.968,158.238 425.293,169.193 
						431.618,180.148 					"/>
				</g>
				<g>
					<rect x="418.297" y="141.323" style="fill:#F0F0F0;" width="1.344" height="24.975"/>
				</g>
				<g>
					<g>
						<rect x="364.9" y="185.564" style="fill:#F0F0F0;" width="35.024" height="83.148"/>
					</g>
					<g>
						<rect x="367.475" y="182.72" style="fill:#F0F0F0;" width="13.215" height="11.277"/>
					</g>
					<g>
						<rect x="368.664" y="181.889" style="fill:#F0F0F0;" width="3.543" height="10.125"/>
					</g>
					<g>
						<rect x="376.038" y="181.889" style="fill:#F0F0F0;" width="3.543" height="10.125"/>
					</g>
					<g>
						<rect x="389.818" y="182.76" style="fill:#F0F0F0;" width="7.867" height="7.867"/>
					</g>
					<g>
						<g>
							<g>
								<rect x="370.042" y="192.638" style="fill:#F5F5F5;" width="5.07" height="2.379"/>
							</g>
							<g>
								<rect x="380.157" y="192.638" style="fill:#F5F5F5;" width="5.07" height="2.379"/>
							</g>
							<g>
								<rect x="390.272" y="192.638" style="fill:#F5F5F5;" width="5.07" height="2.379"/>
							</g>
						</g>
						<g>
							<g>
								<rect x="370.042" y="198.522" style="fill:#F5F5F5;" width="5.07" height="2.379"/>
							</g>
							<g>
								<rect x="380.157" y="198.522" style="fill:#F5F5F5;" width="5.07" height="2.379"/>
							</g>
							<g>
								<rect x="390.272" y="198.522" style="fill:#F5F5F5;" width="5.07" height="2.379"/>
							</g>
						</g>
						<g>
							<g>
								<rect x="370.042" y="204.407" style="fill:#F5F5F5;" width="5.07" height="2.379"/>
							</g>
							<g>
								<rect x="380.157" y="204.407" style="fill:#F5F5F5;" width="5.07" height="2.379"/>
							</g>
							<g>
								<rect x="390.272" y="204.407" style="fill:#F5F5F5;" width="5.07" height="2.379"/>
							</g>
						</g>
						<g>
							<g>
								<rect x="370.042" y="210.291" style="fill:#F5F5F5;" width="5.07" height="2.378"/>
							</g>
							<g>
								<rect x="380.157" y="210.291" style="fill:#F5F5F5;" width="5.07" height="2.378"/>
							</g>
							<g>
								<rect x="390.272" y="210.291" style="fill:#F5F5F5;" width="5.07" height="2.378"/>
							</g>
						</g>
						<g>
							<g>
								<rect x="370.042" y="216.176" style="fill:#F5F5F5;" width="5.07" height="2.379"/>
							</g>
							<g>
								<rect x="380.157" y="216.176" style="fill:#F5F5F5;" width="5.07" height="2.379"/>
							</g>
							<g>
								<rect x="390.272" y="216.176" style="fill:#F5F5F5;" width="5.07" height="2.379"/>
							</g>
						</g>
						<g>
							<g>
								<rect x="370.042" y="222.06" style="fill:#F5F5F5;" width="5.07" height="2.379"/>
							</g>
							<g>
								<rect x="380.157" y="222.06" style="fill:#F5F5F5;" width="5.07" height="2.379"/>
							</g>
							<g>
								<rect x="390.272" y="222.06" style="fill:#F5F5F5;" width="5.07" height="2.379"/>
							</g>
						</g>
						<g>
							<g>
								<rect x="370.042" y="227.945" style="fill:#F5F5F5;" width="5.07" height="2.379"/>
							</g>
							<g>
								<rect x="380.157" y="227.945" style="fill:#F5F5F5;" width="5.07" height="2.379"/>
							</g>
							<g>
								<rect x="390.272" y="227.945" style="fill:#F5F5F5;" width="5.07" height="2.379"/>
							</g>
						</g>
						<g>
							<g>
								<rect x="370.042" y="233.829" style="fill:#F5F5F5;" width="5.07" height="2.379"/>
							</g>
							<g>
								<rect x="380.157" y="233.829" style="fill:#F5F5F5;" width="5.07" height="2.379"/>
							</g>
							<g>
								<rect x="390.272" y="233.829" style="fill:#F5F5F5;" width="5.07" height="2.379"/>
							</g>
						</g>
						<g>
							<g>
								<rect x="370.042" y="239.714" style="fill:#F5F5F5;" width="5.07" height="2.378"/>
							</g>
							<g>
								<rect x="380.157" y="239.714" style="fill:#F5F5F5;" width="5.07" height="2.378"/>
							</g>
							<g>
								<rect x="390.272" y="239.714" style="fill:#F5F5F5;" width="5.07" height="2.378"/>
							</g>
						</g>
						<g>
							<g>
								<rect x="370.042" y="245.598" style="fill:#F5F5F5;" width="5.07" height="2.379"/>
							</g>
							<g>
								<rect x="380.157" y="245.598" style="fill:#F5F5F5;" width="5.07" height="2.379"/>
							</g>
							<g>
								<rect x="390.272" y="245.598" style="fill:#F5F5F5;" width="5.07" height="2.379"/>
							</g>
						</g>
						<g>
							<g>
								<rect x="370.042" y="251.483" style="fill:#F5F5F5;" width="5.07" height="2.379"/>
							</g>
							<g>
								<rect x="380.157" y="251.483" style="fill:#F5F5F5;" width="5.07" height="2.379"/>
							</g>
							<g>
								<rect x="390.272" y="251.483" style="fill:#F5F5F5;" width="5.07" height="2.379"/>
							</g>
						</g>
						<g>
							<g>
								<rect x="370.042" y="257.367" style="fill:#F5F5F5;" width="5.07" height="2.379"/>
							</g>
							<g>
								<rect x="380.157" y="257.367" style="fill:#F5F5F5;" width="5.07" height="2.379"/>
							</g>
							<g>
								<rect x="390.272" y="257.367" style="fill:#F5F5F5;" width="5.07" height="2.379"/>
							</g>
						</g>
					</g>
				</g>
			</g>
		</g>
		<polygon style="opacity:0.2;fill:#FFFFFF;" points="428.139,104.771 327.524,205.394 327.524,176.497 399.25,104.771 		"/>
		<polygon style="opacity:0.2;fill:#FFFFFF;" points="435.305,141.2 435.305,161.824 328.398,268.731 327.524,268.731 
			327.524,248.989 		"/>
	</g>
	<g>
		<g>
			<g>
				<g>
					<g>
						<g>
							<g>
								<g>
									<path style="fill:#F0F0F0;" d="M278.368,301.992H105.169l0,0c0,2.932,2.377,5.309,5.309,5.309h162.581
										C275.991,307.301,278.368,304.924,278.368,301.992L278.368,301.992z"/>
								</g>
							</g>
						</g>
					</g>
				</g>
				<g>
					<g>
						<g>
							<g>
								<rect x="140.753" y="352.207" style="fill:#F0F0F0;" width="103.597" height="4.912"/>
							</g>
						</g>
					</g>
				</g>
				<g>
					<g>
						<g>
							<g>
								<g>
									<polygon style="fill:#F0F0F0;" points="240.684,410.339 254.804,307.301 249.845,307.301 235.724,410.339 									"/>
								</g>
							</g>
						</g>
					</g>
				</g>
				<g>
					<g>
						<g>
							<g>
								<g>
									<polygon style="fill:#F0F0F0;" points="252.293,410.339 237.944,307.301 242.903,307.301 257.252,410.339 									"/>
								</g>
							</g>
						</g>
					</g>
				</g>
				<g>
					<g>
						<g>
							<g>
								<g>
									<polygon style="fill:#F0F0F0;" points="132.827,410.339 147.552,307.301 142.593,307.301 127.868,410.339 									"/>
								</g>
							</g>
						</g>
					</g>
				</g>
				<g>
					<g>
						<g>
							<g>
								<g>
									<polygon style="fill:#F0F0F0;" points="144.436,410.339 130.316,307.301 135.275,307.301 149.395,410.339 									"/>
								</g>
							</g>
						</g>
					</g>
				</g>
				<g>
					<g>
						<g>
							<g>
								<g>
									<g>
										<rect x="99.358" y="293.471" style="fill:#F5F5F5;" width="184.821" height="8.554"/>
									</g>
								</g>
							</g>
						</g>
					</g>
				</g>
			</g>
			<g>
				<g>
					<g>
						<g>
							<g>
								<path style="fill:#E0E0E0;" d="M165.967,293.504h80.204l0.871-1.969c0.548-1.238-0.881-2.473-2.862-2.473h-74.007
									c-1.327,0-2.495,0.572-2.862,1.402L165.967,293.504z"/>
							</g>
						</g>
						<g>
							<g>
								<g>
									<g>
										<g>
											<path style="fill:#F0F0F0;" d="M268.16,237.673l-10.266,43.421c-0.274,1.157-1.306,1.974-2.496,1.974h-63.243
												c-1.655,0-2.877-1.544-2.496-3.154l10.266-43.421c0.274-1.157,1.306-1.974,2.496-1.974h63.243
												C267.319,234.519,268.541,236.064,268.16,237.673z"/>
										</g>
									</g>
								</g>
							</g>
						</g>
						<g>
							<g>
								<g>
									<g>
										<g>
											<g>
												<path style="fill:#E0E0E0;" d="M237.431,260.492c-0.301,2.733-2.761,4.948-5.494,4.948s-4.704-2.215-4.403-4.948
													c0.301-2.733,2.761-4.949,5.494-4.949C235.76,255.543,237.732,257.759,237.431,260.492z"/>
											</g>
										</g>
									</g>
								</g>
							</g>
						</g>
						<g>
							<g>
								<g>
									<g>
										<g>
											<g>
												<path style="fill:#E0E0E0;" d="M204.927,234.519l-10.93,48.549h-1.841c-1.655,0-2.877-1.544-2.496-3.154l10.266-43.421
													c0.274-1.157,1.306-1.974,2.496-1.974H204.927z"/>
											</g>
										</g>
									</g>
								</g>
							</g>
						</g>
						<g>
							<g>
								<g>
									<polygon style="fill:#E0E0E0;" points="223.246,283.068 221.09,293.383 227.427,293.383 229.582,283.068 									"/>
								</g>
							</g>
						</g>
						<g>
							<g>
								<g>
									<path style="fill:#E0E0E0;" d="M211.843,291.637l1.298-1.824c0.463-0.651,1.213-1.038,2.012-1.038h17.374
										c0.919,0,1.762,0.511,2.188,1.325l0.875,1.673c0.409,0.782-0.159,1.72-1.041,1.72h-21.747
										C211.846,293.493,211.29,292.415,211.843,291.637z"/>
								</g>
							</g>
						</g>
					</g>
				</g>
			</g>
		</g>
	</g>
	<g>
		<g>
			<g>
				<g>
					<g>
						<g>
							<g>
								<g>
									<g>
										<g>
											<g>
												<path style="fill:#F0F0F0;" d="M394.542,387.462c0,0-8.439,1.87-7.185-4.018c1.254-5.888,1.162-8.059-2.268-10.735
													c-3.43-2.676-6.882-3.998-4.255-8.236c2.626-4.238-2.357-7.532-4.933-9.813c-2.576-2.281,0.332-4.001,1.014-8.313
													c0.682-4.312-3.956-3.664-4.32-9.095c-0.364-5.431,5.153-11.778,0.409-19.254c0,0,6.371,3.304,8.464,9.108
													c2.093,5.804,0.403,10.287,4.167,12.493c3.764,2.206,6.12,6.022,4.841,9.938c-1.279,3.916,0.538,5.993,3.624,8.849
													c3.085,2.856,2.264,3.991,1.88,7.483c-0.384,3.492,0.387,2.667,3.919,7.437
													C403.432,378.079,403.522,385.897,394.542,387.462z"/>
											</g>
										</g>
									</g>
								</g>
							</g>
						</g>
						<g>
							<g>
								<path style="fill:#E0E0E0;" d="M395.744,387.201c-0.017-0.028-0.032-0.057-0.043-0.091l-16.887-51.254
									c-0.073-0.219,0.047-0.458,0.267-0.53c0.003-0.001,0.005-0.001,0.008-0.002c0.218-0.068,0.452,0.052,0.524,0.27
									l16.886,51.253c0.014,0.041,0.02,0.083,0.021,0.125L395.744,387.201z"/>
							</g>
						</g>
					</g>
					<g>
						<g>
							<g>
								<g>
									<path style="fill:#F0F0F0;" d="M409.77,387.356c0,0,8.394,1.86,7.147-3.997c-1.247-5.857-1.156-8.016,2.256-10.678
										c3.412-2.662,6.845-3.977,4.233-8.192c-2.613-4.215,2.345-7.492,4.907-9.76c2.562-2.269-0.33-3.98-1.009-8.269
										c-0.679-4.289,3.935-3.645,4.298-9.047c0.362-5.402-5.126-11.716-0.407-19.152c0,0-6.338,3.287-8.419,9.06
										c-2.082,5.773-0.401,10.233-4.145,12.427c-3.744,2.194-6.088,5.99-4.816,9.885c1.272,3.895-0.536,5.961-3.605,8.802
										c-3.069,2.841-2.252,3.97-1.87,7.443c0.382,3.474-0.385,2.652-3.898,7.398C400.927,378.022,400.837,385.799,409.77,387.356
										z"/>
								</g>
							</g>
						</g>
						<g>
							<g>
								<g>
									<g>
										<g>
											<path style="fill:#E0E0E0;" d="M407.802,386.868c0.001-0.042,0.007-0.084,0.021-0.125l16.796-50.981
												c0.072-0.217,0.304-0.336,0.521-0.269c0.003,0.001,0.005,0.002,0.008,0.003c0.218,0.072,0.337,0.309,0.265,0.527
												l-16.797,50.982c-0.01,0.033-0.025,0.062-0.043,0.09L407.802,386.868z"/>
										</g>
									</g>
								</g>
							</g>
						</g>
					</g>
					<g>
						<g>
							<g>
								<path style="fill:#F5F5F5;" d="M400.448,386.289c0,0-9.66-0.8-6.361-6.69c3.299-5.89,3.921-8.246,1.136-12.251
									c-2.785-4.005-6.043-6.568-1.822-10.234c4.22-3.667-0.023-8.85-2.025-12.148c-2.001-3.298,1.684-4.175,3.847-8.567
									c2.163-4.392-3.021-5.238-1.607-11.176c1.414-5.938,9.431-10.904,6.832-20.486c0,0,5.727,5.655,6.041,12.566
									c0.314,6.911-2.984,11.153,0.314,14.765c3.299,3.613,4.555,8.482,1.885,12.252c-2.67,3.77-1.414,6.597,0.943,10.681
									c2.356,4.084,1.099,5.027-0.471,8.639c-1.571,3.613-0.471,2.985,1.728,9.268
									C413.087,379.191,410.586,387.596,400.448,386.289z"/>
							</g>
						</g>
						<g>
							<g>
								<g>
									<g>
										<g>
											<path style="fill:#E0E0E0;" d="M401.822,386.409c-0.009-0.036-0.016-0.072-0.016-0.112l-1.065-60.505
												c-0.005-0.259,0.203-0.474,0.462-0.479c0.003,0,0.006,0,0.01,0c0.256,0,0.466,0.206,0.471,0.464l1.065,60.503
												c0.002,0.049-0.006,0.096-0.019,0.141L401.822,386.409z"/>
										</g>
									</g>
								</g>
							</g>
						</g>
					</g>
					<g>
						<g>
							<path style="fill:#E6E6E6;" d="M426.752,381.616h-47.246c-1.359,0-2.298,1.357-1.819,2.629l0.699,1.855l0.441,1.175
								l1.268,3.367l0.443,1.175l1.302,3.457l0.441,1.174l5.197,13.799h31.297l5.197-13.799l0.441-1.174l1.302-3.457l0.443-1.175
								l1.268-3.367l0.441-1.175l0.699-1.855C429.048,382.973,428.109,381.616,426.752,381.616z"/>
						</g>
					</g>
				</g>
			</g>
		</g>
	</g>
</g>
<g id="Background_simple" style="display:none;">
	<g style="display:inline;">
		<path style="fill:#7855FA;" d="M189.862,296.004c45.046,17.901,94.503,17.457,138.811-2.2
			c23.703-10.516,48.15-28.037,65.699-57.183c46.8-77.725-22.157-129.722-89.93-107.022c-67.772,22.699-78.545,38.33-129.714-5.216
			C122.685,80.09,65.78,140.824,98.595,210.69C115.709,247.128,149.751,280.064,189.862,296.004z"/>
		<path style="opacity:0.9;fill:#A78BFB;" d="M189.862,296.004c45.046,17.901,94.503,17.457,138.811-2.2
			c23.703-10.516,48.15-28.037,65.699-57.183c46.8-77.725-22.157-129.722-89.93-107.022c-67.772,22.699-78.545,38.33-129.714-5.216
			C122.685,80.09,65.78,140.824,98.595,210.69C115.709,247.128,149.751,280.064,189.862,296.004z"/>
	</g>
</g>
<g id="Shadow">
	<ellipse style="fill:#F0F0F0;" cx="245.983" cy="433.595" rx="194.316" ry="6.072"/>
</g>
<g id="Plant">
	<g>
		<polygon style="fill:#7855FA;" points="115.462,396.479 107.243,433.425 85.159,433.425 76.94,396.479 		"/>
		<polygon style="opacity:0.5;fill:#A78BFB;" points="115.462,396.479 107.243,433.425 85.159,433.425 76.94,396.479 		"/>
		<rect x="75" y="396.479" style="fill:#7855FA;" width="42.117" height="4.518"/>
		<rect x="75" y="396.479" style="opacity:0.7;fill:#A78BFB;" width="42.117" height="4.518"/>
		<g>
			<g>
				<g>
					<path style="fill:#7855FA;" d="M96.444,396.479h0.973c0.5-30.336-7.863-52.11-7.958-52.352c-0.1-0.254-1.007,0.101-0.907,0.356
						C88.647,344.723,96.947,366.333,96.444,396.479z"/>
				</g>
			</g>
		</g>
		<path style="fill:#7855FA;" d="M94.489,365.867c0,0-3.343-10.211,15.081-13.752C109.57,352.115,109.23,370.003,94.489,365.867z"/>
		<path style="fill:#7855FA;" d="M96.438,382.746c0,0-3.343-10.211,15.081-13.752C111.519,368.994,111.18,386.883,96.438,382.746z"
			/>
		<path style="fill:#7855FA;" d="M95.793,372.608c0,0-1.079-10.69-19.359-6.465C76.434,366.142,83.99,382.36,95.793,372.608z"/>
		<path style="fill:#7855FA;" d="M96.888,387.986c0,0-1.079-10.69-19.359-6.465C77.53,381.52,85.086,397.738,96.888,387.986z"/>
		<path style="fill:#7855FA;" d="M92.433,356.056c0,0-10.718,0.742-9.642-17.989C82.791,338.067,100.052,342.776,92.433,356.056z"/>
	</g>
</g>
<g id="Gears">
	<g>
		<g>
			<g>
				<g>
					<g>
						<path style="fill:#7855FA;" d="M348.455,304.419c0.525,0.71,1.146,1.353,1.858,1.907l-1.552,3.681l4.033,1.701l1.486-3.524
							c0.958,0.208,1.923,0.267,2.87,0.188l1.685,4.144l4.055-1.649l-1.555-3.823c1.062-0.622,2.01-1.441,2.785-2.437l3.682,1.552
							l1.701-4.033l-3.524-1.486c0.246-1.138,0.278-2.286,0.125-3.401l3.438-1.398l-1.65-4.055l-3.321,1.351
							c-0.715-1.086-1.652-2.035-2.775-2.779l1.486-3.523l-4.033-1.701l-1.552,3.682c-0.895-0.123-1.788-0.12-2.663,0.001
							l-1.593-3.916l-4.055,1.649l1.546,3.8c-1.086,0.715-2.035,1.652-2.779,2.775l-3.523-1.486l-1.701,4.034l3.681,1.553
							c-0.147,1.074-0.121,2.149,0.079,3.188l-3.799,1.545l1.649,4.055L348.455,304.419z M352.661,297.004
							c0.86-2.038,3.217-2.997,5.256-2.138c2.039,0.86,2.997,3.217,2.138,5.256c-0.86,2.039-3.217,2.997-5.256,2.138
							C352.76,301.401,351.801,299.043,352.661,297.004z"/>
					</g>
				</g>
			</g>
		</g>
		<g style="opacity:0.5;">
			<g>
				<g>
					<g>
						<path style="fill:#A78BFB;" d="M348.455,304.419c0.525,0.71,1.146,1.353,1.858,1.907l-1.552,3.681l4.033,1.701l1.486-3.524
							c0.958,0.208,1.923,0.267,2.87,0.188l1.685,4.144l4.055-1.649l-1.555-3.823c1.062-0.622,2.01-1.441,2.785-2.437l3.682,1.552
							l1.701-4.033l-3.524-1.486c0.246-1.138,0.278-2.286,0.125-3.401l3.438-1.398l-1.65-4.055l-3.321,1.351
							c-0.715-1.086-1.652-2.035-2.775-2.779l1.486-3.523l-4.033-1.701l-1.552,3.682c-0.895-0.123-1.788-0.12-2.663,0.001
							l-1.593-3.916l-4.055,1.649l1.546,3.8c-1.086,0.715-2.035,1.652-2.779,2.775l-3.523-1.486l-1.701,4.034l3.681,1.553
							c-0.147,1.074-0.121,2.149,0.079,3.188l-3.799,1.545l1.649,4.055L348.455,304.419z M352.661,297.004
							c0.86-2.038,3.217-2.997,5.256-2.138c2.039,0.86,2.997,3.217,2.138,5.256c-0.86,2.039-3.217,2.997-5.256,2.138
							C352.76,301.401,351.801,299.043,352.661,297.004z"/>
					</g>
				</g>
			</g>
		</g>
	</g>
	<g>
		<g>
			<g>
				<g>
					<g>
						<path style="fill:#7855FA;" d="M118.483,148.113c0.525,0.711,1.146,1.353,1.858,1.907l-1.552,3.681l4.033,1.701l1.486-3.524
							c0.958,0.208,1.923,0.267,2.87,0.188l1.686,4.144l4.055-1.649l-1.555-3.822c1.062-0.622,2.01-1.441,2.785-2.437l3.682,1.552
							l1.701-4.033l-3.524-1.486c0.246-1.138,0.278-2.286,0.125-3.401l3.438-1.398l-1.65-4.055l-3.321,1.351
							c-0.715-1.086-1.652-2.035-2.775-2.779l1.486-3.523l-4.033-1.701l-1.552,3.682c-0.895-0.123-1.788-0.12-2.663,0l-1.593-3.916
							l-4.055,1.649l1.546,3.8c-1.086,0.715-2.035,1.652-2.779,2.775l-3.523-1.486l-1.701,4.034l3.681,1.553
							c-0.147,1.074-0.121,2.149,0.079,3.188l-3.799,1.545l1.649,4.055L118.483,148.113z M122.689,140.699
							c0.86-2.038,3.217-2.997,5.256-2.138c2.038,0.86,2.997,3.217,2.138,5.256c-0.86,2.039-3.218,2.997-5.256,2.138
							C122.788,145.095,121.83,142.738,122.689,140.699z"/>
					</g>
				</g>
			</g>
		</g>
		<g style="opacity:0.5;">
			<g>
				<g>
					<g>
						<path style="fill:#A78BFB;" d="M118.483,148.113c0.525,0.711,1.146,1.353,1.858,1.907l-1.552,3.681l4.033,1.701l1.486-3.524
							c0.958,0.208,1.923,0.267,2.87,0.188l1.686,4.144l4.055-1.649l-1.555-3.822c1.062-0.622,2.01-1.441,2.785-2.437l3.682,1.552
							l1.701-4.033l-3.524-1.486c0.246-1.138,0.278-2.286,0.125-3.401l3.438-1.398l-1.65-4.055l-3.321,1.351
							c-0.715-1.086-1.652-2.035-2.775-2.779l1.486-3.523l-4.033-1.701l-1.552,3.682c-0.895-0.123-1.788-0.12-2.663,0l-1.593-3.916
							l-4.055,1.649l1.546,3.8c-1.086,0.715-2.035,1.652-2.779,2.775l-3.523-1.486l-1.701,4.034l3.681,1.553
							c-0.147,1.074-0.121,2.149,0.079,3.188l-3.799,1.545l1.649,4.055L118.483,148.113z M122.689,140.699
							c0.86-2.038,3.217-2.997,5.256-2.138c2.038,0.86,2.997,3.217,2.138,5.256c-0.86,2.039-3.218,2.997-5.256,2.138
							C122.788,145.095,121.83,142.738,122.689,140.699z"/>
					</g>
				</g>
			</g>
		</g>
	</g>
</g>
<g id="Puzzle_pieces">
	<g>
		<g>
			<path style="fill:#7855FA;" d="M258.4,142.579v34.22l-102.66,0.008V74.155h9.246c0,0,6.313,1.798,8.404,6.807
				c1.875,4.461-0.926,9.84-1.574,10.974c-0.054,0.1-0.085,0.162-0.108,0.193c-0.008,0-0.008,0.015-0.008,0.023h-0.015
				c-1.327,2.3-2.091,4.978-2.091,7.826c0,8.605,6.969,15.59,15.582,15.59c8.613,0,15.59-6.984,15.59-15.59
				c0-2.856-0.772-5.526-2.107-7.826c0-0.008-0.008-0.023-0.008-0.031c-0.023-0.023-0.069-0.085-0.108-0.185
				c-0.648-1.134-3.458-6.514-1.59-10.974c2.107-5.009,8.412-6.807,8.412-6.807h53.028l0.008,28.046c0,0-1.806,6.305-6.815,8.412
				c-4.453,1.875-9.84-0.941-10.974-1.574c-0.093-0.054-0.162-0.1-0.193-0.108c0-0.015-0.008-0.015-0.023-0.023
				c-2.3-1.343-4.962-2.099-7.826-2.099c-8.597,0-15.582,6.977-15.582,15.59c0,8.605,6.984,15.582,15.597,15.582
				c2.848,0,5.51-0.764,7.81-2.099c0.015-0.015,0.023-0.015,0.031-0.015c0.039-0.015,0.093-0.062,0.185-0.116
				c1.134-0.641,6.521-3.458,10.974-1.574C256.594,136.274,258.4,142.579,258.4,142.579z"/>
		</g>
		<g style="opacity:0.7;">
			<path style="fill:#A78BFB;" d="M258.4,142.579v34.22l-102.66,0.008V74.155h9.246c0,0,6.313,1.798,8.404,6.807
				c1.875,4.461-0.926,9.84-1.574,10.974c-0.054,0.1-0.085,0.162-0.108,0.193c-0.008,0-0.008,0.015-0.008,0.023h-0.015
				c-1.327,2.3-2.091,4.978-2.091,7.826c0,8.605,6.969,15.59,15.582,15.59c8.613,0,15.59-6.984,15.59-15.59
				c0-2.856-0.772-5.526-2.107-7.826c0-0.008-0.008-0.023-0.008-0.031c-0.023-0.023-0.069-0.085-0.108-0.185
				c-0.648-1.134-3.458-6.514-1.59-10.974c2.107-5.009,8.412-6.807,8.412-6.807h53.028l0.008,28.046c0,0-1.806,6.305-6.815,8.412
				c-4.453,1.875-9.84-0.941-10.974-1.574c-0.093-0.054-0.162-0.1-0.193-0.108c0-0.015-0.008-0.015-0.023-0.023
				c-2.3-1.343-4.962-2.099-7.826-2.099c-8.597,0-15.582,6.977-15.582,15.59c0,8.605,6.984,15.582,15.597,15.582
				c2.848,0,5.51-0.764,7.81-2.099c0.015-0.015,0.023-0.015,0.031-0.015c0.039-0.015,0.093-0.062,0.185-0.116
				c1.134-0.641,6.521-3.458,10.974-1.574C256.594,136.274,258.4,142.579,258.4,142.579z"/>
		</g>
		<path style="fill:#7855FA;" d="M360.959,74.147v102.552h-13.683c-1.034-0.34-6.336-2.246-8.227-6.745
			c-1.875-4.453,0.934-9.832,1.574-10.967c0.054-0.093,0.093-0.154,0.116-0.185c0-0.008,0.008-0.015,0.008-0.023l0.008-0.008
			c1.335-2.292,2.099-4.962,2.099-7.81c0-8.597-6.977-15.574-15.574-15.574c-8.605,0-15.574,6.977-15.574,15.574
			c0,2.848,0.764,5.518,2.099,7.818c0.008,0.008,0.008,0.015,0.015,0.023c0.023,0.031,0.062,0.093,0.116,0.185
			c0.641,1.135,3.442,6.514,1.574,10.967c-1.891,4.499-7.193,6.406-8.227,6.745H258.4v-34.181c0,0-1.798-6.305-6.799-8.404
			c-4.453-1.868-9.832,0.934-10.967,1.575c-0.093,0.054-0.154,0.093-0.185,0.116c-0.008,0.008-0.016,0.008-0.023,0.015
			c-2.3,1.335-4.97,2.099-7.818,2.099c-8.597,0-15.574-6.969-15.574-15.574c0-8.597,6.977-15.574,15.574-15.574
			c2.848,0,5.518,0.764,7.81,2.099l0.008,0.008c0.008,0,0.015,0.008,0.023,0.008c0.031,0.023,0.093,0.062,0.185,0.116
			c1.135,0.641,6.514,3.45,10.967,1.574c5.001-2.099,6.799-8.405,6.799-8.405V74.147H360.959z"/>
		<path style="opacity:0.5;fill:#A78BFB;" d="M360.959,74.147v102.552h-13.683c-1.034-0.34-6.336-2.246-8.227-6.745
			c-1.875-4.453,0.934-9.832,1.574-10.967c0.054-0.093,0.093-0.154,0.116-0.185c0-0.008,0.008-0.015,0.008-0.023l0.008-0.008
			c1.335-2.292,2.099-4.962,2.099-7.81c0-8.597-6.977-15.574-15.574-15.574c-8.605,0-15.574,6.977-15.574,15.574
			c0,2.848,0.764,5.518,2.099,7.818c0.008,0.008,0.008,0.015,0.015,0.023c0.023,0.031,0.062,0.093,0.116,0.185
			c0.641,1.135,3.442,6.514,1.574,10.967c-1.891,4.499-7.193,6.406-8.227,6.745H258.4v-34.181c0,0-1.798-6.305-6.799-8.404
			c-4.453-1.868-9.832,0.934-10.967,1.575c-0.093,0.054-0.154,0.093-0.185,0.116c-0.008,0.008-0.016,0.008-0.023,0.015
			c-2.3,1.335-4.97,2.099-7.818,2.099c-8.597,0-15.574-6.969-15.574-15.574c0-8.597,6.977-15.574,15.574-15.574
			c2.848,0,5.518,0.764,7.81,2.099l0.008,0.008c0.008,0,0.015,0.008,0.023,0.008c0.031,0.023,0.093,0.062,0.185,0.116
			c1.135,0.641,6.514,3.45,10.967,1.574c5.001-2.099,6.799-8.405,6.799-8.405V74.147H360.959z"/>
	</g>
</g>
<g id="Character_2">
	<g>
		<g>
			<path style="fill:#263238;" d="M289.799,187.788l-7.636,18.28c-1.282,3.026-2.59,6.034-3.916,8.98
				c-0.659,1.468-1.344,2.919-2.029,4.316c-0.685,1.397-1.388,2.768-2.056,3.889c-0.205,0.365-0.445,0.721-0.587,0.917l-0.009,0.009
				l-0.988,0.472l-1.086,0.489l-2.225,0.97l-9.158,3.88c-6.15,2.608-12.308,5.295-18.405,8.134l2.154,6.71
				c6.648-1.264,13.216-2.75,19.766-4.414c3.266-0.863,6.532-1.709,9.816-2.697l2.492-0.757l1.264-0.4l1.344-0.463l0.507-0.187
				l0.231-0.098l0.917-0.4c0.169-0.08,0.285-0.125,0.481-0.223c0.196-0.116,0.383-0.223,0.561-0.347
				c0.187-0.116,0.374-0.249,0.481-0.329c0.543-0.418,0.899-0.748,1.219-1.068c0.401-0.409,0.73-0.783,1.015-1.13
				c0.543-0.65,0.935-1.21,1.335-1.771c0.676-0.979,1.264-1.922,1.815-2.839c0.409-0.668,0.783-1.317,1.157-1.967
				c0.872-1.566,1.691-3.115,2.483-4.655c1.593-3.088,3.044-6.185,4.468-9.283c2.821-6.212,5.447-12.406,7.841-18.805
				L289.799,187.788z M273.984,223.974l-0.053,0.036l-0.036,0.018l0.089-0.062c0.027-0.018,0.053-0.036,0.08-0.045
				C274.038,223.938,274.011,223.956,273.984,223.974z"/>
			<g>
				<g>
					<g>
						<g>
							<g>
								<g>
									<path style="fill:#CE7A63;" d="M243.385,238.871c0,0-1.843-1.972-4.074-2.022c-2.231-0.05-4-0.683-5.661-0.605
										c-1.661,0.078,0.104,1.464,1.193,2.012c1.089,0.547,2.317,1.179,1.773,1.93c-0.543,0.751-7.811,4.03-8.446,5.158
										c-0.635,1.127,0.706,0.964,0.706,0.964s-1.624,0.747-1.597,1.626c0.026,0.878,1.188,0.715,1.188,0.715
										s-1.073,0.54-0.605,1.253c0.467,0.712,6.73-1,7.055-0.925c0,0-3.71,0.214-3.874,1.301c-0.164,1.087,2.238,0.73,4.161,0.485
										c1.922-0.244,3.877-1.116,5.214-2.575c1.337-1.459,4.346-3.206,3.995-5.465
										C244.059,240.463,243.385,238.871,243.385,238.871z"/>
								</g>
							</g>
						</g>
					</g>
					<g style="opacity:0.2;">
						<g>
							<g>
								<g>
									<g>
										<path d="M228.776,248.708c1.861-0.842,3.748-1.621,5.648-2.325c0.2,0.495,0.437,0.965,0.706,1.428
											c0.141,0.225,0.427-0.067,0.299-0.292c-0.819-1.389-1.318-2.977-1.486-4.687c-0.028-0.277-0.392-0.185-0.364,0.092
											c0.042,0.428,0.102,0.836,0.188,1.244c-0.032-0.019-0.069-0.018-0.107-0.005c-1.525,0.436-2.998,1.061-4.419,1.873
											c-0.213,0.128-0.071,0.517,0.155,0.389c1.39-0.794,2.831-1.411,4.319-1.835c0.056-0.019,0.094-0.057,0.119-0.108
											c0.112,0.521,0.262,1.03,0.442,1.519c-1.9,0.704-3.781,1.477-5.648,2.325
											C228.402,248.428,228.551,248.811,228.776,248.708z"/>
									</g>
								</g>
							</g>
						</g>
					</g>
					<g style="opacity:0.2;">
						<g>
							<g>
								<g>
									<g>
										<path d="M235.906,244.403c1.442-1.952,3.618-2.684,5.633-1.941c0.227,0.086,0.368-0.324,0.141-0.41
											c-2.185-0.81-4.512,0.011-6.072,2.109C235.452,244.382,235.75,244.612,235.906,244.403z"/>
									</g>
								</g>
							</g>
						</g>
					</g>
				</g>
			</g>
			<path style="opacity:0.2;" d="M306.993,190.038c0,0.377-0.306,0.682-0.682,0.682c-0.377,0-0.682-0.306-0.682-0.682
				c0-0.377,0.305-0.682,0.682-0.682C306.688,189.355,306.993,189.661,306.993,190.038z"/>
			<path style="opacity:0.2;" d="M306.993,194.506c0,0.377-0.306,0.682-0.682,0.682c-0.377,0-0.682-0.306-0.682-0.682
				c0-0.377,0.305-0.682,0.682-0.682C306.688,193.824,306.993,194.129,306.993,194.506z"/>
			<path style="opacity:0.2;" d="M306.993,198.975c0,0.377-0.306,0.682-0.682,0.682c-0.377,0-0.682-0.305-0.682-0.682
				c0-0.377,0.305-0.682,0.682-0.682C306.688,198.292,306.993,198.598,306.993,198.975z"/>
		</g>
		<g>
			<g>
				<g>
					<g>
						<polygon style="fill:#FF8B7B;" points="290.301,416.863 287.749,427.366 282.219,427.366 281.967,416.863 						"/>
						<g>
							<g>
								<path style="fill:#263238;" d="M266.159,434.795c0.3-3.422,1.803-4.444,3.659-4.56c1.931-0.121,8.824-2.43,8.824-2.43
									s1.44-2.173,2.709-2.615c1.269-0.441,2.497,0.851,2.497,0.851l3.472-0.423c0,0,1.041-1.563,1.757-0.194
									c1.109,2.121,0.975,7.993,0.872,9.37H266.159z"/>
							</g>
						</g>
						<g>
							<g>
								<g>
									<path style="fill:#7855FA;" d="M266.609,433.9c1.44-0.007,2.873-0.013,4.313-0.02c6.29-0.03,12.578-0.068,18.868-0.098
										c0.24,0.001,0.191-0.367-0.048-0.361c-0.423,0.005-0.854,0.003-1.278,0.008c-0.002-0.014-0.012-0.035-0.021-0.049
										c-1.167-1.972-0.389-3.975,1.286-4.973c0.197-0.11-0.036-0.431-0.225-0.314c-1.812,1.081-2.6,3.224-1.422,5.334
										c-0.889,0.009-1.771,0.012-2.661,0.014c-6.283,0.03-12.571,0.068-18.861,0.098
										C266.321,433.538,266.37,433.906,266.609,433.9z"/>
								</g>
							</g>
						</g>
					</g>
				</g>
				<path style="fill:#7855FA;" d="M313.181,279.283c-1.125,10.583-3.337,24.275-7.342,41.895c-1.163,5.12-2.479,10.574-3.966,16.38
					c4.071,33.619-11.861,82.189-11.861,82.189l-8.533-0.191c0,0-1.071-54.278-0.067-82.694c1.645-46.558,7.316-90.908,7.316-90.908
					l23.243-0.091C311.97,245.864,315.984,252.862,313.181,279.283z"/>
				<path style="opacity:0.2;" d="M313.181,279.283c-1.125,10.583-3.337,24.275-7.342,41.895
					c-4.891-18.621,3.957-58.362,3.957-58.362L313.181,279.283z"/>
				<g>
					<polygon style="fill:#263238;" points="280.499,421.565 280.229,417.91 291.613,417.91 290.969,421.565 					"/>
				</g>
			</g>
			<g>
				<g>
					<g>
						<polygon style="fill:#FF8B7B;" points="325.682,416.863 323.13,427.366 317.6,427.366 317.348,416.863 						"/>
						<g>
							<g>
								<path style="fill:#263238;" d="M301.54,434.795c0.3-3.422,1.803-4.444,3.659-4.56c1.931-0.121,8.824-2.43,8.824-2.43
									s1.44-2.173,2.709-2.615c1.269-0.441,2.496,0.851,2.496,0.851l3.472-0.423c0,0,1.041-1.563,1.757-0.194
									c1.109,2.121,0.975,7.993,0.873,9.37H301.54z"/>
							</g>
						</g>
						<g>
							<g>
								<g>
									<path style="fill:#7855FA;" d="M301.991,433.9c1.44-0.007,2.873-0.013,4.313-0.02c6.289-0.03,12.578-0.068,18.868-0.098
										c0.24,0.001,0.191-0.367-0.048-0.361c-0.423,0.005-0.854,0.003-1.277,0.008c-0.002-0.014-0.012-0.035-0.021-0.049
										c-1.167-1.972-0.389-3.975,1.286-4.973c0.197-0.11-0.036-0.431-0.225-0.314c-1.813,1.081-2.6,3.224-1.422,5.334
										c-0.889,0.009-1.772,0.012-2.661,0.014c-6.283,0.03-12.571,0.068-18.861,0.098
										C301.702,433.538,301.751,433.906,301.991,433.9z"/>
								</g>
							</g>
						</g>
					</g>
				</g>
				<path style="fill:#7855FA;" d="M305.177,247.746c0,0,4.346,64.268,5.767,89.814c1.622,29.181,5.275,78.922,5.769,82.178h8.82
					c-1.011,0.984,11.321-43.663,6.349-80.013c4.659-34.769,10.329-60.226,3.019-92.962L305.177,247.746z"/>
				<g>
					<polygon style="fill:#263238;" points="315.673,421.565 315.403,417.91 326.787,417.91 326.143,421.565 					"/>
				</g>
			</g>
			<path style="fill:#263238;" d="M337.552,249.298c-18.535,6.121-49.685,4.109-49.685-0.134c0-11.956,4.233-25.4,3.099-33.19
				c-8.762-6.131-1.916-11.67-2.679-20.757c-0.591-6.932,4.319-13.148,11.175-14.331c1.583-0.267,3.223-0.534,4.834-0.744
				c0.334-0.048,0.658-0.086,0.982-0.124c4.31-0.534,8.409-0.639,12.957-0.61c1.583,0,3.223,0.029,4.939,0.048
				c1.707,0.029,3.375,0.105,4.958,0.219c5.892,0.41,10.154,5.845,9.115,11.68c-1.516,8.61-2.374,16.743-2.698,24.132
				c-0.076,1.669-0.133,3.28-0.153,4.863c-0.095,6.188,0.191,11.775,0.753,16.59c0.01,0.105,0.029,0.21,0.038,0.305
				c0.267,2.193,0.591,4.214,0.973,6.064c0.114,0.582,0.238,1.135,0.372,1.678C336.799,246.142,337.247,248.154,337.552,249.298z"/>
			<path style="opacity:0.2;" d="M325.81,193.993l9.247,13.928c0.142-1.673,0.312-3.382,0.516-5.109v-0.036L325.81,193.993z"/>
			<path style="fill:#7855FA;" d="M304.294,195.308c0,0.328-0.266,0.594-0.594,0.594c-0.328,0-0.594-0.266-0.594-0.594
				c0-0.328,0.266-0.594,0.594-0.594C304.028,194.714,304.294,194.98,304.294,195.308z"/>
			<path style="fill:#7855FA;" d="M303.934,200.651c0,0.328-0.266,0.594-0.594,0.594c-0.328,0-0.594-0.266-0.594-0.594
				c0-0.328,0.266-0.594,0.594-0.594C303.667,200.057,303.934,200.323,303.934,200.651z"/>
			<circle style="fill:#7855FA;" cx="303.339" cy="206.089" r="0.594"/>
			<path style="fill:#FF8B7B;" d="M318.235,179.408c-4.389,7.713-14.715,12.332-14.715,12.332
				c-1.394-3.456-0.957-8.998,0.776-11.597c0.334-0.048,0.658-0.086,0.982-0.124C309.587,179.485,313.687,179.38,318.235,179.408z"
				/>
			<g>
				<path style="fill:#263238;" d="M312.002,149.146c0,0,7.911,7.565,4.264,16.136c-2.873,6.752-8.553,8.709-8.553,8.709
					L312.002,149.146z"/>
				<path style="fill:#263238;" d="M299.335,147.263c0,0-7.77-1.306-9.437,7.26c-1.667,8.566-1.247,11.681,1.015,13.807
					c2.976,2.797,7.711-0.248,7.711-0.248L299.335,147.263z"/>
				<g>
					<path style="fill:#FF8B7B;" d="M304.178,182.438c-0.037,0.115-0.086,0.232-0.162,0.352c-1.493,2.355,0.13,4.506,2.699,4.321
						c0.25-0.018,0.495-0.052,0.736-0.1c0.923-0.185,1.778-0.659,2.417-1.351c0.003-0.003,0.006-0.006,0.008-0.009
						c3.079-3.341,6.39-5.873,6.39-5.873c-3.861-2.069-5.272-9.418-5.63-14.01l-5.994,7.632l-1.122,1.666
						c0.542,0.961,1.027,1.958,1.299,2.947C305.262,179.546,305.217,181.07,304.178,182.438z"/>
				</g>
				<path style="fill:#7855FA;" d="M315.672,179.404c0,0,3.59-0.934,6.417,0l-5.824,10.006c-3.066-2.235-6.579,0.666-12.746,2.33
					C303.52,191.74,310.866,188.046,315.672,179.404z"/>
				<path style="fill:#7855FA;" d="M315.672,179.404c0,0,3.59-0.934,6.417,0l-5.824,10.006c-3.066-2.235-6.579,0.666-12.746,2.33
					C303.52,191.74,310.866,188.046,315.672,179.404z"/>
				<path style="fill:#7855FA;" d="M305.081,179.862c0,0-3.557-0.652-5.62,1.024c0,0-1.189,3.981-1.665,7.874
					c0,0,3.423-1.708,5.724,2.98C303.52,191.74,302.355,184.272,305.081,179.862z"/>
				<path style="fill:#7855FA;" d="M305.081,179.862c0,0-3.557-0.652-5.62,1.024c0,0-1.189,3.981-1.665,7.874
					c0,0,3.423-1.708,5.724,2.98C303.52,191.74,302.355,184.272,305.081,179.862z"/>
				<g style="opacity:0.2;">
					<path d="M304.819,178.012c-0.272-0.989-0.757-1.986-1.299-2.947l1.122-1.666l3.774,0.086
						C308.416,173.484,307.425,176.531,304.819,178.012z"/>
				</g>
				<g>
					<path style="fill:#FF8B7B;" d="M311.733,157.585c0.6,7.544,1.013,10.725-2.153,15.085c-4.762,6.558-13.984,5.61-16.783-1.611
						c-2.52-6.501-3.079-17.746,3.684-21.731C303.144,145.402,311.133,150.041,311.733,157.585"/>
				</g>
				<path style="fill:#263238;" d="M310.075,162.524c3.782-1.006,2.296-4.913,2.296-4.913l-5.571,0.863
					C306.8,158.475,306.292,163.521,310.075,162.524z"/>
				<path style="fill:#263238;" d="M294.029,150.036c0,0,0.872,4.164,5.989,4.387c5.117,0.223,4.668,7.787,10.4,6.591
					c5.731-1.195,4.031-9.977,1.584-11.868C309.554,147.255,299.719,143.146,294.029,150.036z"/>
				<path style="fill:#263238;" d="M305.967,146.194c0,0,3.724-11.007,12.366-6.65c8.642,4.356,1.054,15.669-4.427,14.193
					C308.427,152.261,305.967,146.194,305.967,146.194z"/>
				<g>
					<path style="fill:#FFFFFF;" d="M295.941,169.213c0,0,2.831-1.612,4.483-3.262c0,0,0.54,2.862-1.386,3.918
						C297.113,170.923,295.941,169.213,295.941,169.213z"/>
				</g>
				<g>
					<path style="fill:#263238;" d="M299.318,160.95c0.085,0.609-0.168,1.148-0.566,1.204c-0.398,0.056-0.79-0.393-0.876-1.002
						c-0.086-0.609,0.168-1.148,0.566-1.204C298.84,159.893,299.232,160.341,299.318,160.95"/>
				</g>
				<g>
					<path style="fill:#263238;" d="M293.129,161.956c0.086,0.609-0.168,1.148-0.566,1.204c-0.398,0.056-0.79-0.393-0.876-1.002
						c-0.086-0.609,0.167-1.148,0.566-1.204C292.652,160.899,293.044,161.347,293.129,161.956"/>
				</g>
				<g>
					<path style="fill:#263238;" d="M292.434,160.964l-1.522-0.216C290.912,160.748,291.823,161.785,292.434,160.964"/>
				</g>
				<g>
					<path style="fill:#FF5652;" d="M295.402,161.831c0,0-0.823,1.762-1.766,3.323c-0.306,0.508-0.077,1.175,0.488,1.359
						c0.97,0.316,1.984,0.378,1.984,0.378L295.402,161.831z"/>
				</g>
				<g>
					<path style="fill:#FF8B7B;" d="M315.122,162.392c-0.468,1.526-1.514,2.59-2.576,3.054c-1.597,0.698-2.68-1.009-2.473-2.926
						c0.186-1.725,1.242-4.167,2.959-4.039C314.725,158.607,315.656,160.648,315.122,162.392"/>
				</g>
				<g>
					<path style="fill:#263238;" d="M300.985,158.513c-0.095,0-0.191-0.039-0.261-0.113c-1.106-1.172-2.416-0.951-2.431-0.949
						c-0.194,0.034-0.384-0.095-0.42-0.291c-0.035-0.197,0.095-0.384,0.291-0.42c0.069-0.012,1.713-0.291,3.086,1.164
						c0.136,0.145,0.13,0.373-0.015,0.511C301.164,158.481,301.075,158.513,300.985,158.513"/>
				</g>
				<g>
					<path style="fill:#263238;" d="M290.289,159.608c-0.089,0.007-0.181-0.017-0.258-0.078c-0.155-0.125-0.179-0.353-0.055-0.508
						c1.253-1.556,2.914-1.41,2.985-1.403c0.199,0.02,0.344,0.197,0.323,0.396c-0.02,0.198-0.196,0.342-0.394,0.324
						c-0.065-0.006-1.355-0.101-2.351,1.136C290.475,159.554,290.384,159.6,290.289,159.608"/>
				</g>
				<g>
					<path style="fill:#263238;" d="M298.623,159.958l-1.522-0.216C297.101,159.741,298.012,160.779,298.623,159.958"/>
				</g>
			</g>
		</g>
		<line style="fill:#263238;" x1="312.367" y1="157.612" x2="306.804" y2="158.477"/>
		<path style="fill:#263238;" d="M344.891,226.629c-3.106,4.984-6.568,9.995-9.959,14.934l5.242,4.717
			c4.699-4.201,9.033-8.597,13.181-13.421c2.083-2.421,4.067-4.939,5.963-7.858c0.472-0.739,0.934-1.504,1.379-2.358
			c0.445-0.854,0.881-1.771,1.273-2.928c0.196-0.57,0.374-1.228,0.507-2.029c0.125-0.792,0.24-1.753,0.027-3.106
			c-0.222-1.237-0.534-1.976-0.81-2.643c-0.276-0.659-0.552-1.148-0.819-1.646c-1.068-1.878-2.109-3.231-3.15-4.592
			c-1.05-1.344-2.1-2.599-3.159-3.818c-2.154-2.403-4.307-4.708-6.541-6.915c-4.441-4.432-8.971-8.597-13.839-12.584l-9.247,10.831
			l13.314,11.979c2.18,2.02,4.37,3.996,6.408,6.034c1.032,0.997,2.038,2.002,2.964,2.999c0.917,0.97,1.78,2.003,2.314,2.723
			c0.009,0.018,0.027,0.027,0.036,0.044c-0.062,0.169-0.125,0.356-0.196,0.543c-0.205,0.525-0.454,1.104-0.721,1.7
			C347.934,221.618,346.422,224.128,344.891,226.629z"/>
		<path style="fill:#FF8B7B;" d="M335.281,239.355c0,0-5.913,2.193-6.825,3.345c-0.912,1.152,4.893,7.688,7.146,8.603
			c2.254,0.915,1.093-1.799,1.093-1.799s2.91,0.679,4.268-1.53C342.322,245.766,340.719,239.724,335.281,239.355z"/>
	</g>
</g>
<g id="Character_1">
	<g>
		<g>
			<g>
				<g>
					<g>
						<g>
							<g>
								<polygon style="fill:#FFC3BD;" points="193.299,411.926 193.299,427.388 199.544,427.885 202.602,413.409 								"/>
							</g>
						</g>
					</g>
					<g>
						<g>
							<g>
								<path style="fill:#263238;" d="M197.73,426.429c0,0,1.963-3.77,3.122-3.367c1.159,0.402,1.631,4.975,1.631,4.975
									s6.294,2.105,8.052,2.216c1.758,0.111,3.182,1.108,3.408,4.542h-21.492c0,0,0.145-7.755,0.184-9.084
									c0.039-1.329,1.931,0.332,1.931,0.332L197.73,426.429z"/>
							</g>
						</g>
						<g>
							<g>
								<g>
									<path style="fill:#FFFFFF;" d="M192.688,428.658c1.503,0.917,2.209,2.74,1.168,4.532c-0.115,0.198,0.157,0.372,0.273,0.172
										c1.14-1.962,0.437-3.981-1.231-4.998C192.721,428.255,192.511,428.549,192.688,428.658L192.688,428.658z"/>
								</g>
							</g>
						</g>
						<g>
							<g>
								<g>
									<path style="fill:#FFFFFF;" d="M192.656,433.56c5.62,0.059,11.239,0.117,16.859,0.176c1.307,0.014,2.613,0.027,3.919,0.041
										c0.219,0.002,0.263-0.339,0.044-0.341c-5.619-0.059-11.239-0.117-16.859-0.176c-1.307-0.014-2.613-0.027-3.92-0.041
										C192.481,433.216,192.437,433.558,192.656,433.56L192.656,433.56z"/>
								</g>
							</g>
						</g>
						<g>
							<g>
								<g>
									<path style="fill:#FFFFFF;" d="M201.552,429.389c0.883-1.052,2.168-1.347,3.135-0.555c0.16,0.131,0.368-0.165,0.21-0.295
										c-1.108-0.907-2.616-0.516-3.618,0.677C201.129,429.396,201.403,429.566,201.552,429.389L201.552,429.389z"/>
								</g>
							</g>
						</g>
						<g>
							<g>
								<g>
									<path style="fill:#FFFFFF;" d="M203.332,429.948c0.883-1.052,2.168-1.347,3.135-0.555c0.16,0.131,0.368-0.165,0.21-0.295
										c-1.108-0.908-2.616-0.516-3.618,0.677C202.909,429.955,203.183,430.125,203.332,429.948L203.332,429.948z"/>
								</g>
							</g>
						</g>
						<g>
							<g>
								<g>
									<path style="fill:#FFFFFF;" d="M205.173,430.506c0.883-1.052,2.168-1.347,3.135-0.555c0.16,0.131,0.368-0.165,0.21-0.295
										c-1.108-0.908-2.616-0.516-3.618,0.677C204.75,430.513,205.024,430.684,205.173,430.506L205.173,430.506z"/>
								</g>
							</g>
						</g>
					</g>
				</g>
				<path style="fill:#263238;" d="M189.55,258.692c0.178,2.759-0.201,11.231,0.173,15.779c0.703,8.668,1.646,19.909,2.394,31.167
					c0.872,13.038,1.495,26.094,1.184,35.154c-0.801,23.264-0.623,75.986-0.623,75.986h10.092c0,0,11.855-52.402,14.071-75.986
					c1.851-19.553,0.869-69.925,0.558-82.1H189.55z"/>
				<path style="opacity:0.2;fill:#FFFFFF;" d="M189.55,258.692c0.178,2.759-0.201,11.231,0.173,15.779
					c0.703,8.668,1.646,19.909,2.394,31.167c0.872,13.038,1.495,26.094,1.184,35.154c-0.801,23.264-0.623,75.986-0.623,75.986
					h10.092c0,0,11.855-52.402,14.071-75.986c1.851-19.553,0.869-69.925,0.558-82.1H189.55z"/>
				<path style="opacity:0.2;" d="M189.723,274.471c0.703,8.668,1.646,19.909,2.394,31.167c4.966-14.702,0.356-36.916,0.356-36.916
					L189.723,274.471z"/>
				<polygon style="fill:#7855FA;" points="191.8,417.137 203.645,417.137 204.513,413.359 191.493,413.201 				"/>
			</g>
			<g>
				<g>
					<g>
						<g>
							<g>
								<g>
									<polygon style="fill:#FFC3BD;" points="141.706,409.043 139.346,424.323 145.443,425.768 150.674,411.929 									"/>
								</g>
							</g>
						</g>
						<g>
							<g>
								<path style="fill:#263238;" d="M143.872,424.052c0,0,2.516-3.426,3.6-2.851c1.084,0.575,0.852,5.165,0.852,5.165
									s5.899,3.041,7.62,3.419c1.721,0.378,2.976,1.581,2.674,5.009l-21.24-3.281c0,0,1.327-7.642,1.569-8.949
									c0.241-1.308,1.858,0.623,1.858,0.623L143.872,424.052z"/>
							</g>
						</g>
						<g>
							<g>
								<g>
									<path style="fill:#FFFFFF;" d="M138.549,425.485c1.346,1.136,1.764,3.045,0.463,4.657
										c-0.144,0.178,0.098,0.392,0.243,0.212c1.426-1.765,1.039-3.868-0.453-5.128
										C138.643,425.092,138.39,425.351,138.549,425.485L138.549,425.485z"/>
								</g>
							</g>
						</g>
						<g>
							<g>
								<g>
									<path style="fill:#FFFFFF;" d="M137.769,430.325c5.545,0.916,11.089,1.832,16.634,2.747
										c1.289,0.213,2.578,0.426,3.867,0.639c0.216,0.036,0.312-0.295,0.095-0.331c-5.545-0.916-11.089-1.832-16.634-2.747
										c-1.289-0.213-2.578-0.426-3.867-0.639C137.648,429.959,137.553,430.289,137.769,430.325L137.769,430.325z"/>
								</g>
							</g>
						</g>
						<g>
							<g>
								<g>
									<path style="fill:#FFFFFF;" d="M147.197,427.561c1.033-0.905,2.348-1.001,3.183-0.07c0.138,0.154,0.389-0.107,0.253-0.259
										c-0.956-1.066-2.507-0.909-3.679,0.117C146.778,427.503,147.023,427.714,147.197,427.561L147.197,427.561z"/>
								</g>
							</g>
						</g>
						<g>
							<g>
								<g>
									<path style="fill:#FFFFFF;" d="M148.871,428.385c1.033-0.905,2.348-1.001,3.183-0.069c0.138,0.154,0.389-0.107,0.252-0.259
										c-0.956-1.066-2.507-0.909-3.679,0.117C148.452,428.327,148.697,428.538,148.871,428.385L148.871,428.385z"/>
								</g>
							</g>
						</g>
						<g>
							<g>
								<g>
									<path style="fill:#FFFFFF;" d="M150.605,429.218c1.033-0.905,2.348-1.001,3.183-0.07c0.138,0.154,0.389-0.107,0.252-0.259
										c-0.956-1.066-2.507-0.91-3.679,0.117C150.186,429.16,150.431,429.371,150.605,429.218L150.605,429.218z"/>
								</g>
							</g>
						</g>
					</g>
				</g>
				<path style="fill:#263238;" d="M177.251,342.83c-6.237,22.848-27.205,72.267-27.205,72.267l-9.945-1.732
					c0,0,10.358-51.418,15.132-74.195c4.309-20.556,9.039-67.77,10.568-81.828l33.379,3.005
					C197.401,272.39,182.426,323.877,177.251,342.83L177.251,342.83z"/>
				<path style="opacity:0.2;fill:#FFFFFF;" d="M177.251,342.83c-6.237,22.848-27.205,72.267-27.205,72.267l-9.945-1.732
					c0,0,10.358-51.418,15.132-74.195c4.309-20.556,9.039-67.77,10.568-81.828l33.379,3.005
					C197.401,272.39,182.426,323.877,177.251,342.83L177.251,342.83z"/>
				<polygon style="fill:#7855FA;" points="139.177,413.572 150.845,415.603 152.35,412.031 139.346,409.657 				"/>
			</g>
		</g>
		<g>
			<g>
				<path style="fill:#7855FA;" d="M222.447,189.833c-0.561,4.824-1.477,15.014-2.376,26.504c-0.329,4.343-0.667,8.891-0.97,13.394
					c-0.365,5.206-0.659,10.208-0.89,14.756c-0.089,1.842-0.169,3.613-0.24,5.286c-0.32,8.286-0.32,14.338,0.142,16.162
					c-25.836,10.457-53.897-3.061-53.897-3.061c1.664-13.528,3.337-28.898,3.337-28.898c0.783-5.758,1.549-11.579,2.225-17.061
					c0.053-0.445,0.116-0.89,0.16-1.326c0.329-2.697,0.632-5.295,0.908-7.761c0.036-0.303,0.071-0.605,0.107-0.908
					c0.534-4.85,0.943-9.14,1.193-12.575c0.463-6.461,4.388-12.478,10.235-13.554c1.771-0.329,3.685-0.623,5.66-0.846
					c0.472-0.062,0.952-0.107,1.433-0.16c5.473-0.596,11.445-0.863,16.829-0.685c0.267,0,0.543,0.009,0.81,0.018
					c0.133,0.009,0.294,0.009,0.427,0.018c0.231,0.009,0.472,0.018,0.703,0.036c2.385,0.107,4.655,0.311,6.666,0.614
					C219.465,180.453,223.061,184.573,222.447,189.833z"/>
				<path style="opacity:0.3;fill:#FFFFFF;" d="M204.957,193.199c0.015,0.454-0.341,0.835-0.795,0.85
					c-0.454,0.015-0.835-0.341-0.85-0.795c-0.015-0.454,0.341-0.835,0.795-0.85C204.561,192.388,204.942,192.744,204.957,193.199z"
					/>
				<path style="opacity:0.3;fill:#FFFFFF;" d="M205.128,198.318c0.015,0.454-0.341,0.835-0.795,0.85
					c-0.454,0.015-0.835-0.341-0.85-0.795c-0.015-0.454,0.341-0.835,0.795-0.85C204.732,197.507,205.113,197.863,205.128,198.318z"
					/>
				<path style="opacity:0.3;fill:#FFFFFF;" d="M205.3,203.436c0.015,0.454-0.341,0.835-0.795,0.85
					c-0.454,0.015-0.835-0.341-0.85-0.795c-0.015-0.454,0.341-0.835,0.795-0.85C204.904,202.626,205.284,202.982,205.3,203.436z"/>
				<path style="opacity:0.2;" d="M189.55,203.806c0,0,0.973,22.288,2.724,23.998c1.751,1.71,22.658,10.132,22.658,10.132
					c-11.982-1.386-22.708-3.271-27.987-7.32C184.992,225.23,187.773,213.886,189.55,203.806z"/>
				<path style="opacity:0.2;" d="M218.21,244.486c-0.089,1.842-0.169,3.613-0.24,5.286c-7.387-0.481-34.833-0.859-42.372-11.703
					c-4.413-6.348-2.252-32.235-2.252-32.235c5.5,18.138,20.025,32.128,38.358,36.943L218.21,244.486z"/>
				<path style="fill:#7855FA;" d="M259.07,214.913c-3.222-0.196-6.443-0.374-9.549-0.659c-1.531-0.151-3.079-0.311-4.388-0.516
					c-0.205-0.027-0.418-0.071-0.614-0.107c-0.009-0.027-0.107-0.125-0.258-0.267c-0.676-0.641-1.7-1.718-2.634-2.803
					c-0.961-1.104-1.931-2.296-2.901-3.507c-1.949-2.412-3.871-4.948-5.803-7.485c-3.845-5.091-7.716-10.324-11.614-15.361
					l-12.976,9.38c3.818,5.545,7.85,10.751,12.175,15.904c2.163,2.572,4.396,5.091,6.755,7.609c1.201,1.246,2.421,2.483,3.738,3.738
					c1.344,1.255,2.652,2.492,4.575,3.863c0.48,0.338,1.05,0.712,1.753,1.104l0.596,0.32c0.214,0.107,0.49,0.222,0.739,0.329
					c0.24,0.107,0.632,0.24,0.952,0.347c0.205,0.062,0.24,0.062,0.356,0.089l0.303,0.071c1.602,0.347,2.545,0.374,3.551,0.436
					c1.949,0.098,3.676,0.053,5.411-0.018c3.444-0.151,6.773-0.4,10.092-0.739c4.067-0.409,8.108-0.899,12.13-1.486l0.036-0.018
					l1.086-0.49l0.988-0.472l0.009-0.009c0.142-0.196,0.383-0.552,0.587-0.917c0.668-1.121,1.371-2.492,2.056-3.889
					c0.543-1.104,1.086-2.243,1.611-3.4C271.566,215.544,265.274,215.26,259.07,214.913z M243.834,213.426c0,0,0.009-0.009,0.009,0
					c0.009,0,0.027,0,0.053,0.009c0.125,0.027,0.32,0.107,0.383,0.124c0.027,0.009,0.071,0.027,0.107,0.036
					C244.065,213.524,243.834,213.462,243.834,213.426z"/>
				<polygon style="opacity:0.2;" points="223.016,212.412 220.765,196.757 220.302,209.252 				"/>
				<g>
					<g>
						<g>
							<g>
								<g>
									<g>
										<path style="fill:#263238;" d="M207.617,144.414c-3.775-1.08-7.867-0.658-11.229,1.37
											c-2.195,1.325-4.053,3.258-3.835,5.97c0.511,6.328,2.942,16.814,2.942,16.814l20.778-11.008c0,0,1.224-5.404-1.492-8.632
											C212.762,146.532,210.407,145.213,207.617,144.414z"/>
										<path style="fill:#263238;" d="M199.598,144.385c0,0-4.215-0.162-6.93,3.018c-2.263,2.65,0.529,9.451,0.529,9.451
											L199.598,144.385z"/>
										<path style="fill:#263238;" d="M197.495,145.19c0,0,0.792-2.793,9.272-2.786c8.4,0.006,13.651-0.099,12.583,4.788
											c-1.415,6.477-11.779,4.106-11.779,4.106L197.495,145.19z"/>
										<g>
											<path style="fill:#FFC3BD;" d="M205.333,175.859l0.001,0.008c-0.014,0.028-0.02,0.046-0.034,0.074l-1.126,3.589
												c-0.113,0.738-0.156,1.476-0.131,2.196c0.018,0.608,0.087,1.2,0.188,1.771c0.749,1.131,1.015,3.632-1.824,3.515
												c-3.583-0.142-9.969-5.349-10.133-6.939c1.88-4.821,3.578-10.809,3.523-15.499l3.887,4.607L205.333,175.859z"/>
										</g>
										<g style="opacity:0.2;">
											<path d="M205.3,175.942l-1.126,3.589c-2.195-1.125-4.44-3.437-4.869-5.847c-0.297-1.739,0.551-3.314,1.25-3.37
												L205.3,175.942z"/>
										</g>
										<g>
											<path style="fill:#FFC3BD;" d="M214.715,168.745c-0.247,0.781-0.52,1.548-0.809,2.304
												c-2.569,6.674-10.956,6.907-15.929,1.678c-0.007-0.01-0.006-0.019-0.015-0.02c-0.441-0.464-0.857-0.97-1.239-1.525
												c-3.107-4.497-2.125-7.8-1.28-15.363c0.843-7.554,9.163-11.92,15.863-7.727
												C217.49,151.961,217.207,160.944,214.715,168.745z"/>
										</g>
										<path style="fill:#FFFFFF;" d="M205.436,165.375c0,0,2.043,1.212,4.916,2.489c0,0-1.53,2.26-3.973,0.609
											C204.824,167.423,205.436,165.375,205.436,165.375z"/>
										<path style="fill:#263238;" d="M211.915,147.355c-3.506-2.592-10.748-3.417-13.839,0.024
											c-3.09,3.441-2.749,9.145-2.749,9.145s-0.024,1.036,0.656,1.676c0.066,0.056,0.146,0.157,0.232,0.275l3.745,0.372
											c0.2-1.545,0.641-4.369,1.673-4.58c1.933-0.396,0.47-2.462,0.813-3.695c1.115-4.007,11.952-1.994,13.556,3.929
											C216.002,154.5,215.421,149.947,211.915,147.355z"/>
										<g>
											<path style="fill:#FFC3BD;" d="M191.362,160.249c0.212,2.04,1.346,3.791,2.672,4.832
												c1.993,1.565,3.958,0.016,4.213-2.372c0.231-2.149-0.529-5.554-2.92-6.186
												C192.973,155.901,191.12,157.918,191.362,160.249"/>
										</g>
										<g>
											<path style="fill:#263238;" d="M206.672,159.73c-0.102,0.581,0.124,1.107,0.504,1.173c0.38,0.066,0.77-0.351,0.872-0.933
												c0.101-0.581-0.124-1.106-0.504-1.173C207.164,158.732,206.773,159.149,206.672,159.73"/>
										</g>
										<g>
											<path style="fill:#263238;" d="M212.818,160.781c-0.102,0.581,0.124,1.107,0.504,1.173
												c0.38,0.066,0.771-0.351,0.872-0.933c0.101-0.581-0.124-1.107-0.505-1.173
												C213.31,159.782,212.92,160.199,212.818,160.781"/>
										</g>
									</g>
									<g>
										<path style="fill:#263238;" d="M215.316,158.878c-0.104-0.018-0.195-0.09-0.232-0.197
											c-0.168-0.476-0.432-0.799-0.784-0.962c-0.579-0.268-1.234-0.03-1.241-0.027c-0.152,0.059-0.33-0.017-0.389-0.174
											c-0.059-0.156,0.018-0.331,0.174-0.39c0.035-0.014,0.895-0.334,1.709,0.044c0.506,0.234,0.876,0.674,1.099,1.309
											c0.056,0.157-0.026,0.33-0.184,0.386C215.418,158.883,215.365,158.887,215.316,158.878z"/>
									</g>
									<g>
										<path style="fill:#263238;" d="M205.266,157.14c-0.048-0.008-0.094-0.028-0.135-0.058
											c-0.146-0.106-0.178-0.31-0.073-0.456c0.025-0.034,0.614-0.833,1.577-0.975c0.597-0.088,1.194,0.092,1.774,0.536
											c0.144,0.11,0.172,0.315,0.062,0.459c-0.11,0.144-0.316,0.171-0.459,0.061c-0.433-0.331-0.862-0.469-1.277-0.409
											c-0.688,0.098-1.143,0.707-1.147,0.713C205.511,157.115,205.385,157.161,205.266,157.14z"/>
									</g>
									<g>
										<path style="fill:#ED847E;" d="M210.666,159.632c0,0,0.468,2.643,1.393,4.437c0.928,1.8-2.305,1.308-2.305,1.308
											L210.666,159.632z"/>
									</g>
								</g>
							</g>
						</g>
					</g>
				</g>
			</g>
		</g>
		<path style="fill:#7855FA;" d="M226.834,240.9l-0.739,7.173c-7.467,0.053-14.791-0.409-22.24-1.397
			c-3.729-0.489-7.467-1.148-11.294-2.118c-1.913-0.481-3.854-1.041-5.865-1.824c-1.014-0.4-2.038-0.837-3.115-1.388
			c-1.068-0.552-2.189-1.201-3.4-2.163c-0.311-0.258-0.605-0.489-0.926-0.801l-0.472-0.454l-0.481-0.525
			c-0.303-0.329-0.641-0.792-0.943-1.21c-0.311-0.498-0.614-0.952-0.881-1.566c-0.276-0.561-0.507-1.228-0.685-1.905l-0.231-0.908
			c-0.151-0.596-0.231-1.095-0.356-1.646c-0.4-2.109-0.659-4.041-0.881-5.972c-0.427-3.827-0.65-7.556-0.81-11.267l-0.16-5.545
			l-0.018-5.518c0.045-3.693,0.116-7.325,0.374-11.054l16.011,0.578c0.009,7.058-0.169,14.249-0.24,21.288
			c-0.044,3.524-0.053,7.04,0.027,10.422c0.045,1.682,0.116,3.355,0.258,4.824c0.036,0.303,0.053,0.659,0.098,0.935
			c0.552,0.436,1.415,0.979,2.314,1.442c1.299,0.676,2.777,1.335,4.299,1.94c3.079,1.219,6.381,2.278,9.736,3.284
			C212.924,237.509,219.928,239.227,226.834,240.9z"/>
		<g>
			<path style="fill:#FFC3BD;" d="M225.76,241.064c0,0,7.44-1.959,9.013-1.635c1.759,0.362,0.947,9.632-1.329,10.902
				c-2.276,1.27-7.94-2.845-7.94-2.845C224.192,244.469,224.602,241.997,225.76,241.064z"/>
			<path style="fill:#FFC3BD;" d="M225.76,241.064c0,0,1.724-1.847,3.399-2.438c1.675-0.591,3.311-1.454,4.075-1.157
				c0.764,0.297-1.845,2.298-1.845,2.298L225.76,241.064z"/>
			<path style="fill:#FFC3BD;" d="M234.773,239.429c0,0,4.57,1.291,6.025,3.177c1.455,1.886-2.644,0.747-2.644,0.747
				s4.768,1.733,2.8,5.372c-0.965,1.784-6.451,2.137-8.982,1.811C231.974,250.536,232.045,242.791,234.773,239.429z"/>
		</g>
		<path style="fill:#7855FA;" d="M193.365,177.067c0,0-3.008-0.109-5.307,3.228l9.864,11.607c0,0-0.074-4.19,5.34-4.949
			C203.262,186.954,195.956,181.667,193.365,177.067z"/>
		<path style="opacity:0.3;fill:#FFFFFF;" d="M193.365,177.067c0,0-3.008-0.109-5.307,3.228l9.864,11.607c0,0-0.074-4.19,5.34-4.949
			C203.262,186.954,195.956,181.667,193.365,177.067z"/>
		<path style="fill:#7855FA;" d="M203.262,186.954c0,0,0.627-6.511,1.062-7.899l0.561-1.789c0,0,3.878,0.062,5.206,2.01l-0.526,9.92
			C209.566,189.195,206.822,187.016,203.262,186.954z"/>
		<path style="opacity:0.3;fill:#FFFFFF;" d="M203.262,186.954c0,0,0.627-6.511,1.062-7.899l0.561-1.789c0,0,3.878,0.062,5.206,2.01
			l-0.526,9.92C209.566,189.195,206.822,187.016,203.262,186.954z"/>
	</g>
</g>
</svg>
